<svg width="339" height="119" viewBox="0 0 339 119" fill="none" xmlns="http://www.w3.org/2000/svg">
<path d="M21.9147 110.454C20.4533 110.541 18.9027 110.509 17.2653 110.347C15.6267 110.186 13.9987 109.862 12.38 109.387C10.76 108.913 9.2 108.249 7.7 107.394C6.2 106.538 4.87733 105.47 3.73333 104.193C2.588 102.915 1.67867 101.411 1.00667 99.6885C0.336001 97.9645 0 95.9859 0 93.7592C0 91.5299 0.552001 89.5432 1.656 87.7819C2.76133 86.0219 4.20267 84.4592 5.97733 83.0859C7.752 81.7125 9.75333 80.5112 11.9827 79.4699C14.2107 78.4285 16.4187 77.5365 18.6093 76.8032C20.7987 76.0712 22.8707 75.4859 24.8227 75.0539C26.776 74.6205 29.6453 74.2152 29.6453 74.2152C29.664 74.1552 28.3387 72.9605 27.824 72.1859C27.38 71.5179 26.932 70.6779 26.5587 69.6885C26.188 68.6992 26 67.5392 26 66.2112C26 64.6765 26.5493 63.1379 27.6467 61.5845C28.744 60.0312 30.1933 58.6165 31.9987 57.3259C33.804 56.0379 35.8813 54.9179 38.2307 53.9539C40.58 52.9899 42.9987 52.3245 45.4867 51.9645C48.012 51.5979 50.076 51.5499 51.6747 51.8445C53.2747 52.1405 54.5293 52.5779 55.4373 53.1659C56.3453 53.7552 56.9787 54.3885 57.3333 55.0685C57.6893 55.7485 57.8653 56.2619 57.8653 56.6059C57.8653 56.9859 57.7853 57.2659 57.628 57.4485C57.4707 57.6312 57.2827 57.7592 57.0667 57.8299C56.8493 57.9019 56.66 57.9072 56.5027 57.8472C56.3453 57.7872 56.2973 57.6352 56.2667 57.5512C56.0867 57.0645 55.0227 56.4512 54.0747 56.0552C53.2467 55.7085 52.1387 55.4565 50.7573 55.2939C49.376 55.1325 47.5987 55.2125 45.428 55.5245C43.4533 55.8085 41.7267 56.4059 40.2467 57.3179C38.7667 58.2312 37.5293 59.2285 36.544 60.3219C35.556 61.4152 34.816 62.5005 34.3227 63.5819C33.8307 64.6619 33.5827 65.5099 33.5827 66.1245C33.5827 67.5272 33.7587 68.6605 34.1147 69.5285C34.4707 70.3952 34.9147 71.0992 35.448 71.6365C35.9813 72.1765 36.5533 72.5632 37.1653 72.7992C37.7773 73.0365 38.352 73.2179 38.884 73.3419C39.416 73.4645 39.8613 73.5579 40.2173 73.6165C40.572 73.6752 40.748 73.7725 40.748 73.9099C40.748 74.1485 40.7293 74.3979 40.6907 74.6605C40.6507 74.9232 40.4427 75.1912 40.068 75.4592C39.692 75.7285 39.0507 75.9859 38.1427 76.2299C37.2333 76.4739 35.912 76.6965 34.1747 76.8832C30.392 77.2872 27.0253 78.0325 24.072 79.1485C21.1173 80.2659 18.6373 81.6032 16.6293 83.1899C14.6213 84.7765 13.084 86.5472 12.0213 88.5205C10.9573 90.4939 10.424 92.5432 10.424 94.6779C10.424 96.4072 10.6707 98.0512 11.164 99.6125C11.6573 101.173 12.388 102.55 13.356 103.737C14.324 104.922 15.508 105.842 16.9093 106.49C18.3107 107.139 19.9013 107.411 21.6773 107.303C23.0587 107.219 24.144 107.085 24.9347 106.909C25.724 106.733 26.3187 106.537 26.712 106.346C27.1373 106.139 27.5107 105.77 27.4813 105.673C27.4693 105.633 27.3493 105.453 27.304 105.226C27.272 105.063 27.2347 104.793 27.216 104.419C27.1947 104.045 27.1853 103.535 27.1853 102.886C27.1853 102.239 27.332 101.673 27.624 101.19C27.916 100.705 28.24 100.259 28.5907 99.9059C29 99.4939 29.9973 98.8125 29.9973 98.8125C30.012 98.8245 29.7213 99.7432 29.76 100.317C29.8 100.894 29.9147 101.443 30.0573 101.934C30.2267 102.517 30.5787 103.722 30.7133 103.769C30.8973 103.834 31.9427 103.065 32.4427 102.641C32.8787 102.271 33.2787 101.783 33.6373 101.218C33.996 100.654 34.1747 99.9965 34.1747 99.2445C34.1747 98.4925 34.016 97.9672 33.696 97.6739C33.3773 97.3819 33.0253 97.1672 32.6733 97.0805C32.2507 96.9752 31.232 97.1112 31.232 97.1112C31.2107 97.0845 31.6093 96.4659 31.8867 96.1819C32.112 95.9539 32.4427 95.7285 32.84 95.5019C33.2373 95.2765 33.732 95.1339 34.3293 95.0739C35.48 94.9579 36.472 95.2099 37.3053 95.8392C38.14 96.4699 38.5573 97.6019 38.5573 99.2472C38.5573 99.9659 38.3693 100.69 37.9947 101.415C37.6187 102.141 37.136 102.825 36.544 103.467C35.9507 104.11 35.3 104.725 34.5893 105.307C33.8787 105.89 32.54 106.683 32.516 106.834C32.4413 107.305 34.9453 109.505 36.3667 110.543C37.788 111.582 39.268 112.401 40.808 113.002C42.348 113.602 43.8773 113.965 45.3973 114.09C46.916 114.213 48.3933 114.074 49.7507 113.638C50.416 113.425 50.964 113.17 51.3787 112.907C51.7933 112.643 52.12 112.387 52.3573 112.149C52.6333 111.87 52.9707 111.443 52.948 111.342C52.9173 111.201 52.5453 110.798 52.5653 110.417C52.5853 110.034 52.6827 109.73 52.86 109.499C53.0373 109.267 53.2467 109.174 53.4827 109.226C53.72 109.278 53.9213 109.627 54.0747 110.257C54.236 110.918 54.212 111.611 54.0147 112.329C53.8173 113.046 53.4213 113.766 52.8307 114.486C52.2373 115.205 51.4387 115.879 50.432 116.513C49.424 117.145 48.1453 117.695 46.612 118.163C44.9587 118.67 43.3133 118.77 41.6947 118.437C40.076 118.102 38.5173 117.482 37.0173 116.589C35.5173 115.694 34.1053 114.559 32.7827 113.191C31.4587 111.822 29.7907 108.905 29.2587 108.755C29.0453 108.695 27.9813 109.297 27.244 109.531C26.5773 109.742 25.7933 109.943 24.9053 110.107C24.0173 110.271 23.02 110.387 21.9147 110.454Z" fill="#231F20"/>
<path d="M66.6861 99.0242C65.2835 99.2695 64.1021 99.0362 63.1421 98.3335C62.1821 97.6322 61.4795 96.7255 61.0381 95.6175C60.5981 94.5108 60.4408 93.2988 60.5715 91.9828C60.6995 90.6668 61.9341 88.4508 61.9341 88.4508C61.9341 88.4508 58.4155 93.0748 56.7155 95.0175C55.9875 95.8495 55.2381 96.6682 54.4595 97.4642C53.6808 98.2602 52.8981 98.9775 52.1195 99.6082C51.3408 100.24 50.5901 100.764 49.8635 101.179C49.1355 101.596 48.4861 101.841 47.9141 101.917C47.0835 102.028 46.2648 101.996 45.4608 101.82C44.6555 101.644 43.9421 101.289 43.3195 100.765C42.6955 100.24 42.2155 99.5495 41.8795 98.6855C41.5421 97.8228 41.4341 96.7228 41.5288 95.4108C41.5848 94.6428 41.9675 93.5535 42.6955 92.1562C43.4221 90.7588 44.3181 89.2028 45.3835 87.4815C46.4461 85.7615 47.5901 83.9322 48.8101 81.9962C50.0301 80.0615 51.1715 78.1735 52.2368 76.3362C53.2995 74.5002 54.1968 72.7842 54.9248 71.1948C55.6501 69.6068 56.0528 68.2402 56.1701 67.1522C56.2155 66.7402 56.6261 66.5108 57.3781 66.4762C58.1301 66.4415 58.9341 66.6202 59.7915 67.0175C60.6475 67.4162 61.4168 68.0428 62.0915 68.9002C62.7661 69.7588 63.0741 70.9055 62.9475 72.2588C62.8608 73.1695 62.3248 74.5162 61.3888 76.2442C60.4555 77.9722 59.3381 79.8522 58.0408 81.8775C56.7421 83.9042 55.4048 85.9522 54.0288 88.0175C52.6528 90.0842 51.4715 91.9415 50.4861 93.5975C49.4995 95.2522 48.8355 96.5762 48.4981 97.5695C48.1608 98.5628 48.4355 99.0028 49.3181 98.8828C49.6301 98.8388 50.4861 98.1482 51.8875 96.7922C53.2888 95.4375 54.9515 93.6868 56.8728 91.5255C58.7941 89.3655 60.8315 86.9522 62.9875 84.2855C65.1408 81.6188 67.1395 78.9575 68.9835 76.3108C70.8248 73.6655 72.3715 71.1988 73.6181 68.9202C74.8635 66.6415 75.5128 64.7922 75.6435 63.4775C75.6848 63.0642 76.0728 62.8655 76.7728 62.9028C77.4728 62.9415 78.2408 63.1815 79.0701 63.6228C79.9008 64.0642 80.6275 64.7562 81.2501 65.6975C81.8741 66.6402 82.1195 67.8215 82.0288 69.2055C81.9688 70.1228 81.4848 71.4735 80.5501 73.2228C79.6155 74.9762 78.5248 76.8708 77.2795 78.9055C76.0328 80.9388 74.7341 82.9975 73.3835 85.0815C72.0341 87.1668 70.8648 89.0255 69.8795 90.6628C68.8928 92.3042 68.2301 93.6162 67.8928 94.6095C67.5541 95.6055 67.7768 96.0348 68.5568 95.8948C68.9715 95.8215 69.6328 95.3908 70.5421 94.6082C71.4501 93.8268 72.5275 92.7842 73.7728 91.4735C75.0195 90.1642 76.3835 88.6562 77.8635 86.9415C79.3435 85.2308 80.8488 83.4228 82.3808 81.5228C83.9115 79.6228 85.3915 77.7015 86.8195 75.7602C88.2475 73.8215 89.5541 71.9322 90.6768 70.1162C90.9368 69.6948 91.2595 69.3868 91.6488 69.2055C92.0381 69.0242 92.3621 68.9722 92.6221 69.0508C92.8808 69.1282 93.0235 69.3375 93.0501 69.6762C93.0768 70.0148 92.8688 70.5122 92.4661 71.1562C92.2048 71.5762 91.5435 72.5508 90.4808 74.0522C89.4155 75.5548 88.1301 77.3215 86.6248 79.3455C85.1181 81.3695 83.4568 83.4868 81.6395 85.6935C79.8221 87.9002 78.0061 89.9575 76.1888 91.8642C74.3715 93.7735 72.6315 95.3868 70.9701 96.7188C69.3088 98.0495 67.8795 98.8162 66.6861 99.0242Z" fill="#231F20"/>
<path d="M93.7121 60.8699C93.7121 61.5152 93.7775 62.0379 93.9081 62.4459C94.0375 62.8525 94.2241 63.1952 94.4135 63.4645C94.6241 63.7632 95.0668 64.2752 95.1148 64.2659C95.6508 64.1619 97.3735 60.1419 98.4628 58.2192C99.5535 56.2979 100.451 54.6032 101.152 53.1392C101.852 51.6752 102.307 50.5325 102.515 49.7205C102.723 48.9085 102.487 48.5872 101.812 48.7552C101.137 48.9245 100.345 49.4912 99.4375 50.4512C98.5281 51.4125 97.6455 52.5259 96.7881 53.7912C95.9321 55.0579 95.2041 56.3459 94.6081 57.6605C94.0108 58.9752 93.7121 60.0419 93.7121 60.8699ZM121.669 101.425C122.029 100.777 122.421 100.539 122.837 100.713C123.044 100.799 123.303 101.021 123.305 101.15C123.321 101.806 122.119 103.211 121.203 104.189C120.423 105.018 119.375 105.866 118.051 106.679C116.727 107.493 115.051 108.147 113.027 108.637C111.001 109.125 108.86 109.217 106.601 108.915C104.343 108.613 102.265 107.842 100.371 106.615C98.4761 105.389 96.9161 103.654 95.6975 101.421C94.4761 99.1845 93.8681 96.3899 93.8681 93.0365C93.8681 90.5992 94.2441 88.0672 94.9975 85.4352C95.7495 82.8045 96.6721 80.2312 97.7628 77.7205C98.8521 75.2099 100.008 72.8645 101.228 70.6805C102.448 68.4965 104.461 65.1845 104.461 65.1845C104.439 65.1632 101.813 66.7592 99.9441 67.6699C98.0748 68.5819 96.0215 69.2979 93.7908 69.8139C93.2175 69.9472 92.5948 70.0005 91.9201 69.9712C91.2455 69.9419 90.5961 69.6872 89.9735 69.2085C89.3508 68.7299 88.8321 67.9619 88.4175 66.9099C88.0028 65.8579 87.7935 64.3899 87.7935 62.5085C87.7935 59.8032 88.2988 57.2139 89.3121 54.7312C90.3241 52.2512 91.5815 50.0165 93.0881 48.0259C94.5935 46.0365 96.1908 44.3699 97.8788 43.0312C99.5655 41.6939 101.083 40.8512 102.435 40.5085C103.887 40.1392 105.135 40.2099 106.172 40.7272C107.211 41.2432 107.732 42.2179 107.732 43.6472C107.732 44.3405 107.575 45.1779 107.264 46.1592C106.952 47.1405 106.536 48.2059 106.017 49.3539C105.497 50.5019 104.916 51.6779 104.267 52.8792C103.617 54.0805 102.955 55.2512 102.281 56.3845C100.673 59.0899 96.9055 64.8752 96.9055 64.8752C96.9348 64.9045 100.62 62.2685 102.28 61.0859C103.671 60.0939 105.032 59.1365 106.329 58.2099C107.628 57.2832 108.487 56.6405 108.903 56.3085C109.413 55.8979 109.939 55.4792 110.459 55.0419C110.977 54.6085 111.599 54.5272 112.249 54.8232C112.556 54.9619 113.107 55.2472 113.885 55.6445C114.664 56.0432 115.364 56.5539 115.987 57.1765C116.609 57.8019 117.013 58.5432 117.195 59.3979C117.376 60.2552 117.005 61.2419 116.143 62.3485C115.257 63.4872 114.027 65.2632 112.444 67.6125C110.859 69.9605 109.301 72.6072 107.771 75.5512C106.239 78.4939 104.916 81.5859 103.8 84.8272C102.683 88.0712 102.123 91.1845 102.123 94.1805C102.123 97.1779 102.54 99.5499 103.369 101.293C104.199 103.037 105.212 104.325 106.407 105.151C107.601 105.979 108.897 106.445 110.299 106.549C111.701 106.653 112.973 106.565 114.116 106.287C116.451 105.719 118.189 104.953 119.333 103.995C120.475 103.038 121.252 102.174 121.669 101.425" fill="#231F20"/>
<path d="M143.007 72.7728C142.434 72.9315 141.902 72.9821 141.411 72.9315C140.919 72.8808 140.304 72.6061 140.202 72.6341C140.015 72.6848 139.607 73.5395 139.347 73.7781C139.263 73.8541 139.142 73.9968 139.036 74.1421C138.948 74.2648 138.814 74.4155 138.684 74.5901C138.554 74.7661 138.414 74.9888 138.256 75.1981C136.574 77.4595 134.36 79.5955 132.182 81.5275C130.002 83.4635 127.079 84.6821 125.642 85.7021C125.591 85.7381 125.512 85.8075 125.41 85.8341C125.202 85.8875 125.07 85.9408 125.019 86.0008C124.707 86.0821 124.552 86.1235 124.242 86.2035C123.463 86.4061 122.591 86.5168 121.632 86.5315C120.672 86.5461 119.764 86.3501 118.907 85.9421C118.051 85.5341 117.338 84.8355 116.766 83.8448C116.195 82.8555 115.91 81.4315 115.91 79.5781C115.91 77.4928 116.284 75.3115 117.038 73.0315C117.79 70.7515 118.803 68.4955 120.075 66.2568C121.347 64.0195 122.799 61.8448 124.435 59.7315C126.07 57.6168 127.756 55.7021 129.496 53.9901C131.235 52.2768 132.96 50.8301 134.674 49.6501C136.387 48.4701 137.946 47.6795 139.347 47.2821C141.528 46.6635 143.394 46.6808 144.951 47.3341C146.511 47.9888 147.782 48.9261 148.768 50.1435C148.924 50.3341 148.767 50.6848 148.3 51.1928C147.834 51.7008 146.718 52.2061 144.952 52.7075C142.826 53.3115 140.694 54.5328 138.567 56.3661C136.438 58.2008 134.467 60.2901 132.648 62.6288C130.832 64.9688 129.236 67.3928 127.86 69.9035C126.484 72.4128 125.434 74.6781 124.707 76.7048C123.979 78.7341 123.658 80.3555 123.735 81.5648C123.812 82.7768 124.423 83.2301 125.566 82.9301C126.707 82.6315 128.031 81.8661 129.536 80.6275C131.042 79.3888 132.467 78.0235 133.819 76.6128C135.396 74.9675 138.55 72.2275 138.646 71.1675C138.658 71.0248 138.37 70.5008 138.256 70.0821C138.167 69.7461 138.074 69.3155 138.023 68.8155C137.972 68.3195 137.946 67.7408 137.946 67.0848C137.946 65.6848 138.347 64.3835 139.152 63.1795C139.956 61.9741 140.838 61.0861 141.798 60.5128C142.759 59.9395 143.642 59.7861 144.446 60.0501C145.251 60.3155 145.654 61.1715 145.654 62.6235C145.654 63.2795 145.316 64.2421 144.643 65.5075C143.966 66.7741 141.659 69.6928 141.759 70.1688C141.766 70.2021 142.088 70.2781 142.424 70.3008C142.759 70.3248 143.032 70.3075 143.24 70.2488C144.174 69.9915 145.107 69.4141 146.042 68.5221C146.978 67.6301 147.99 66.4315 149.078 64.9315C150.17 63.4288 151.347 61.6421 152.62 59.5661C153.895 57.4915 155.338 55.1421 156.866 52.5408C157.127 52.0941 157.45 51.7475 157.84 51.5168C158.228 51.2888 158.554 51.2061 158.814 51.2728C159.072 51.3381 159.215 51.5595 159.242 51.9275C159.267 52.2981 159.06 52.8261 158.658 53.5061C158.396 53.9515 157.995 54.6955 157.45 55.7208C156.906 56.7461 156.23 57.9155 155.424 59.2261C154.618 60.5381 153.726 61.9315 152.739 63.4075C151.752 64.8835 150.727 66.2648 149.664 67.5461C148.602 68.8288 147.496 69.9448 146.356 70.8941C145.212 71.8448 144.095 72.4715 143.007 72.7728Z" fill="#231F20"/>
<path d="M157.878 73.6264C158.657 73.4077 159.822 72.4491 161.381 70.7371C162.938 69.0291 164.626 66.9611 166.443 64.5344C168.261 62.1091 170.09 59.5117 171.933 56.7384C173.774 53.9677 175.346 51.4344 176.645 49.1437C177.941 46.8544 178.837 44.9957 179.33 43.5731C179.823 42.1504 179.654 41.5597 178.823 41.7997C178.201 41.9811 177.226 42.7011 175.902 43.9597C174.578 45.2197 173.127 46.7877 171.543 48.6624C169.959 50.5371 168.323 52.6237 166.638 54.9237C164.951 57.2251 163.406 59.5064 162.005 61.7651C160.602 64.0264 159.461 66.1597 158.578 68.1731C157.695 70.1851 157.254 71.8757 157.254 73.2371C157.254 73.3317 157.281 73.4197 157.333 73.4997C157.437 73.6584 157.618 73.6997 157.878 73.6264ZM177.187 67.9904C177.759 67.8304 178.889 66.8531 180.575 65.0504C182.261 63.2504 184.183 61.0131 186.338 58.3411C188.49 55.6704 190.699 52.7677 192.957 49.6344C195.214 46.5011 197.173 43.3904 198.911 40.6357C199.205 40.1717 199.559 39.8211 199.922 39.5997C200.286 39.3797 200.611 39.3011 200.897 39.3651C201.182 39.4277 201.337 39.6504 201.363 40.0237C201.39 40.3984 201.182 40.9331 200.779 41.6184C200.517 42.0651 199.859 43.1051 198.795 44.7131C197.731 46.3224 196.433 48.2117 194.902 50.3771C193.371 52.5437 191.682 54.8491 189.841 57.2904C187.997 59.7317 186.169 62.0144 184.351 64.1357C182.534 66.2584 180.795 68.0717 179.135 69.5771C177.473 71.0851 176.045 72.0051 174.851 72.3384C173.917 72.5997 173.021 72.6971 172.166 72.6291C171.311 72.5611 170.557 72.2651 169.907 71.7384C169.258 71.2117 168.726 70.4157 168.311 69.3544C167.897 68.2931 167.687 65.2104 167.687 65.2104C167.573 65.1744 164.757 69.3384 163.406 71.0171C162.227 72.4837 160.978 73.8651 159.707 75.1611C158.434 76.4597 157.385 77.2224 156.554 77.4544C155.723 77.6851 154.825 77.7811 153.867 77.7424C152.906 77.7037 152.013 77.4491 151.182 76.9757C150.35 76.5024 149.662 75.7877 149.117 74.8371C148.571 73.8877 148.299 72.6157 148.299 71.0197C148.299 69.4277 148.766 67.5411 149.701 65.3531C150.634 63.1677 151.87 60.8837 153.402 58.4997C154.931 56.1171 156.658 53.7384 158.578 51.3744C160.498 49.0104 162.434 46.8384 164.379 44.8584C166.326 42.8784 168.182 41.2024 169.946 39.8371C171.71 38.4704 173.215 37.6077 174.462 37.2437C175.81 36.8491 176.955 36.7411 177.89 36.9197C178.823 37.0984 179.598 37.3557 180.145 37.7171C180.763 38.1251 181.626 39.3517 181.626 39.3517C182.451 39.3531 187.607 28.5464 190.113 23.9184C191.183 21.9424 192.254 19.9517 193.266 17.9664C194.278 15.9811 195.185 14.1437 195.991 12.4557C196.795 10.7664 197.445 9.30239 197.938 8.06106C198.433 6.81973 198.678 5.9344 198.678 5.40906C198.678 4.83706 199.027 4.35306 199.729 3.95839C200.429 3.56239 201.182 3.47439 201.986 3.69439C202.791 3.91439 203.543 4.55706 204.243 5.6224C204.945 6.68639 205.295 8.36906 205.295 10.6651C205.295 11.7171 204.817 13.3597 203.857 15.5944C202.895 17.8277 201.649 20.4171 200.118 23.3597C198.586 26.3024 196.859 29.4797 194.939 32.8864C193.019 36.2931 191.099 39.6864 189.179 43.0637C187.259 46.4411 185.427 49.6691 183.69 52.7477C181.95 55.8317 180.485 58.5331 179.291 60.8597C178.097 63.1877 177.278 65.0077 176.838 66.3144C176.397 67.6224 176.514 68.1797 177.187 67.9904Z" fill="#231F20"/>
<path d="M217.364 24.8607C218.506 24.554 219.547 24.6727 220.479 25.218C221.412 25.7633 222.154 26.4487 222.698 27.2687C223.243 28.0887 223.58 28.8767 223.711 29.638C223.839 30.398 223.698 30.8313 223.282 30.9393C221.776 31.3313 219.999 32.4007 217.948 34.1487C215.898 35.898 213.823 37.97 211.72 40.362C209.618 42.7553 207.591 45.2753 205.644 47.9153C203.698 50.5553 202.09 52.962 200.818 55.1287C199.546 57.2967 198.703 59.0367 198.288 60.3473C197.872 61.6567 198.131 62.1807 199.064 61.926C199.376 61.8407 200.038 61.2567 201.051 60.17C202.063 59.0833 203.231 57.7407 204.556 56.138C205.88 54.5367 207.255 52.8047 208.683 50.9367C210.11 49.0687 211.406 47.33 212.574 45.7247C213.742 44.1193 214.676 42.742 215.378 41.5953C216.078 40.45 216.386 39.742 216.274 39.558C216.111 39.2873 216.232 39.066 216.779 38.9207C217.323 38.778 217.976 38.7953 218.728 38.9833C219.478 39.17 220.18 39.59 220.828 40.238C221.476 40.8873 221.802 41.862 221.802 43.1607C221.802 44.4593 221.438 45.9633 220.711 47.6647C219.984 49.366 219.232 50.9527 218.454 52.4273C217.674 53.902 217.079 55.1127 216.664 56.0593C216.247 57.0087 216.352 57.402 216.975 57.242C217.598 57.0807 218.714 56.122 220.322 54.3633C221.931 52.6073 223.75 50.4233 225.775 47.8193C227.799 45.214 229.902 42.3767 232.083 39.3047C234.262 36.2327 236.186 33.1727 237.924 30.4513C238.216 29.994 238.572 29.654 238.936 29.4447C239.299 29.238 239.622 29.1687 239.908 29.2473C240.192 29.3247 240.351 29.5567 240.378 29.9367C240.403 30.318 240.215 30.8713 239.794 31.5273C239.5 31.986 238.819 33.0047 237.807 34.578C236.795 36.15 235.56 37.9967 234.107 40.1113C232.652 42.2313 231.044 44.482 229.279 46.8727C227.512 49.2633 225.744 51.4967 223.98 53.574C222.215 55.6513 220.528 57.414 218.92 58.8607C217.311 60.31 215.911 61.19 214.718 61.498C213.938 61.6993 213.158 61.662 212.379 61.386C211.6 61.11 210.927 60.7113 210.356 60.1913C209.787 59.6713 209.318 59.098 208.955 58.478C208.592 57.8567 208.41 57.3313 208.41 56.9007C208.41 56.47 208.475 55.982 208.604 55.4447C208.734 54.9073 208.874 54.3953 209.032 53.9313C209.228 53.3553 209.734 52.1647 209.734 52.1647C209.715 52.154 206.095 56.87 204.439 58.8953C203.038 60.6087 201.638 62.21 200.236 63.6873C198.834 65.1647 197.768 66.002 197.042 66.1993C196.314 66.398 195.534 66.406 194.704 66.2287C193.874 66.0513 193.083 65.7073 192.332 65.2007C191.58 64.694 190.955 64.0007 190.462 63.1127C189.968 62.2273 189.723 61.1393 189.723 59.8553C189.723 58.4767 190.202 56.714 191.164 54.5633C192.124 52.4153 193.382 50.1113 194.939 47.6487C196.498 45.186 198.276 42.686 200.275 40.146C202.272 37.6087 204.295 35.2647 206.347 33.118C208.396 30.9713 210.382 29.1567 212.302 27.6727C214.222 26.19 215.911 25.2513 217.364 24.8607Z" fill="#231F20"/>
<path d="M252.644 52.5203C251.137 52.8363 249.878 52.243 248.866 50.7376C247.854 49.2336 247.348 47.1003 247.348 44.3336C247.348 43.5576 247.516 42.6336 247.854 41.563C248.192 40.4936 248.634 39.3536 249.178 38.1403C249.724 36.927 250.333 35.6616 251.008 34.3483C251.682 33.035 252.38 31.731 253.11 30.4616C254.805 27.519 258.876 21.131 258.876 21.131C258.857 21.1043 257.55 22.0176 256.149 23.5336C254.746 25.0496 253.122 26.9336 251.28 29.1856C249.437 31.4376 247.504 33.9096 245.477 36.6016C243.453 39.2923 241.596 41.8656 239.91 44.3163C238.222 46.7683 236.821 48.9163 235.704 50.755C234.588 52.595 234.03 53.811 234.03 54.4016C234.03 55.7816 233.757 56.5843 233.212 56.8123C232.666 57.039 232.056 56.8896 231.381 56.3643C230.708 55.8403 230.097 54.999 229.552 53.843C229.005 52.687 228.733 51.383 228.733 49.9376C228.733 48.9723 229.109 47.6736 229.862 46.0416C230.614 44.4083 231.562 42.607 232.705 40.6363C233.846 38.667 235.093 36.6003 236.444 34.435C237.793 32.2696 239.04 30.183 240.182 28.167C241.324 26.1523 242.272 24.255 243.024 22.4776C243.777 20.7016 244.154 19.2056 244.154 17.9936C244.154 17.3643 244.452 16.991 245.049 16.875C245.645 16.7603 246.296 16.935 246.997 17.403C247.698 17.871 248.348 18.6696 248.944 19.795C249.541 20.9216 249.84 22.387 249.84 24.1843C249.84 25.107 249.697 25.955 249.412 26.7216C249.125 27.491 248.837 28.2123 248.516 28.7803C248.14 29.4456 247.192 30.755 247.192 30.755C247.194 30.7563 252.305 24.8376 254.59 22.4096C255.57 21.3683 256.55 20.3296 257.51 19.2976C258.472 18.267 259.382 17.347 260.238 16.5336C261.096 15.7216 261.861 15.0496 262.534 14.5216C263.208 13.995 263.704 13.699 264.016 13.635C264.689 13.499 265.301 13.5856 265.845 13.8923C266.392 14.199 266.846 14.6736 267.209 15.3096C267.572 15.9456 267.857 16.687 268.065 17.527C268.273 18.3683 268.377 19.2283 268.377 20.107C268.377 20.695 267.936 21.819 267.053 23.4776C266.17 25.139 265.078 27.0456 263.781 29.2043C262.482 31.3643 261.12 33.6016 259.693 35.9136C258.265 38.2256 257.005 40.335 255.914 42.2403C254.825 44.1456 254.032 45.699 253.538 46.8976C253.045 48.095 253.112 48.6283 253.733 48.4976C254.876 48.259 256.394 47.2403 258.29 45.443C260.185 43.6483 262.213 41.455 264.368 38.8683C266.521 36.2816 268.689 33.467 270.869 30.427C273.05 27.387 275.046 24.4883 276.71 21.7523C276.972 21.323 277.296 21.0016 277.685 20.8123C278.074 20.6243 278.397 20.5803 278.658 20.6843C278.917 20.787 279.06 21.0323 279.086 21.4203C279.113 21.8096 278.905 22.3376 278.505 22.9923C278.242 23.4216 277.594 24.4203 276.556 25.9696C275.516 27.5203 274.257 29.331 272.777 31.4056C271.297 33.4803 269.662 35.699 267.872 38.0576C266.081 40.419 264.261 42.623 262.42 44.667C260.576 46.7123 258.81 48.4643 257.122 49.9216C255.434 51.3803 253.941 52.2483 252.644 52.5203Z" fill="#231F20"/>
<path d="M281.308 47.278C279.334 47.5807 277.685 47.5287 276.361 47.1087C275.036 46.69 273.973 45.986 273.169 44.998C272.364 44.0114 271.78 42.818 271.416 41.4154C271.053 40.0114 270.869 38.4527 270.869 36.7394C270.869 35.614 271.206 34.1594 271.882 32.374C272.557 30.5887 273.44 28.694 274.53 26.69C275.621 24.686 276.854 22.6567 278.23 20.6087C279.606 18.5607 281.008 16.6967 282.437 15.0167C283.865 13.3367 285.252 11.938 286.602 10.8207C287.953 9.70336 289.149 9.07136 290.188 8.92069C290.758 8.83803 291.238 8.91669 291.628 9.15669C292.017 9.39669 292.364 9.67669 292.602 9.98202C292.864 10.318 293.225 11.2247 293.225 11.2247C293.226 11.2247 293.405 10.8074 293.769 10.414C294.132 10.0207 294.522 9.59802 294.938 9.14602C295.353 8.69669 295.742 8.23936 296.106 7.77269C296.469 7.30603 296.65 6.87669 296.65 6.48069C296.65 6.13669 296.82 5.99003 297.157 6.04469C297.494 6.10069 297.885 6.37136 298.325 6.86069C298.765 7.34869 299.157 8.06736 299.494 9.01269C299.832 9.96069 300 11.1767 300 12.6594C300 14.734 299.728 16.298 299.182 17.3514C298.637 18.4047 298.025 19.3327 297.352 20.13C296.677 20.9287 296.068 21.8074 295.522 22.7647C294.976 23.722 295.069 26.598 294.705 27.0114C294.388 27.3714 292.184 26.9087 291.354 26.1607C290.525 25.4127 289.905 24.538 289.485 23.5767C288.981 22.4247 288.473 19.5834 288.473 19.5834C288.268 19.5194 285.202 23.6394 283.877 25.8074C282.729 27.6847 281.696 29.8087 280.761 32.1194C279.826 34.4287 279.361 36.762 279.361 39.118C279.361 40.8367 279.802 41.9647 280.684 42.514C281.565 43.062 282.528 43.262 283.566 43.1074C283.981 43.0447 284.684 42.6074 285.669 41.8007C286.656 40.9954 287.81 39.9447 289.134 38.654C290.458 37.3647 291.913 35.8767 293.498 34.194C295.081 32.5127 296.664 30.7394 298.248 28.8727C299.832 27.0087 301.364 25.1167 302.842 23.2034C304.324 21.2887 305.62 19.3874 306.778 17.714C307.07 17.29 307.425 16.994 307.789 16.8354C308.152 16.678 308.477 16.658 308.764 16.7794C309.049 16.902 309.205 17.1647 309.23 17.5554C309.257 17.9487 309.046 18.4647 308.645 19.094C308.384 19.506 307.685 20.474 306.542 21.9714C305.401 23.47 304.012 25.218 302.377 27.222C300.741 29.2274 298.949 31.37 297.002 33.6514C295.056 35.9327 293.108 38.0487 291.16 40.006C289.213 41.962 287.384 43.6194 285.669 44.9727C283.956 46.3247 282.502 47.0954 281.308 47.278Z" fill="#231F20"/>
<path d="M322.665 15.0971C322.355 15.1131 321.912 15.3637 321.341 15.8437C320.769 16.3224 320.16 16.9571 319.512 17.7411C318.861 18.5277 318.161 19.4157 317.409 20.4091C316.656 21.4051 315.897 22.4037 315.189 23.3971C313.468 25.8104 309.657 31.6491 309.657 31.6491C309.707 31.6984 314.592 28.1171 316.513 26.1731C318.435 24.2317 319.968 22.4411 321.109 20.7851C322.251 19.1291 322.952 17.7611 323.213 16.6771C323.472 15.5944 323.288 15.0651 322.665 15.0971ZM335.597 16.6397C335.888 16.2397 336.247 15.9744 336.609 15.8464C336.973 15.7197 337.295 15.7277 337.581 15.8771C337.865 16.0277 338.024 16.3037 338.051 16.7024C338.076 17.1024 337.865 17.6064 337.465 18.2051C337.203 18.5971 336.504 19.4957 335.363 20.8824C334.221 22.2677 332.793 23.8864 331.081 25.7451C329.367 27.6077 327.469 29.5811 325.392 31.6784C323.316 33.7757 321.197 35.7157 319.044 37.5024C316.889 39.2891 314.787 40.8051 312.736 42.0451C310.684 43.2864 308.775 44.0451 307.167 44.1304C305.816 44.2024 304.517 43.8771 303.428 43.2917C302.495 42.7904 301.636 41.9757 300.856 40.8477C300.077 39.7211 299.688 37.9984 299.688 35.6757C299.688 33.4517 300.156 31.1624 301.091 28.8091C302.025 26.4571 303.233 24.1744 304.713 21.9677C306.193 19.7624 307.84 17.6797 309.657 15.7317C311.475 13.7811 313.255 12.0704 314.995 10.5957C316.733 9.12105 318.357 7.96372 319.863 7.12239C321.368 6.28105 322.563 5.83972 323.445 5.79172C323.964 5.76505 324.537 5.84772 325.16 6.04239C325.781 6.23705 326.367 6.62505 326.912 7.19972C327.456 7.77572 327.924 8.60505 328.313 9.68905C328.703 10.7731 328.9 12.2131 328.9 14.0104C328.9 15.2077 328.481 16.5317 327.652 17.9837C326.821 19.4357 325.756 20.8957 324.459 22.3731C323.161 23.8504 321.717 25.3024 320.135 26.7344C318.549 28.1664 316.992 29.4571 315.46 30.6064C313.929 31.7544 312.527 32.6917 311.253 33.4131C309.981 34.1357 308.605 34.3997 308.335 34.5864C307.885 34.8997 307.536 36.4557 307.4 37.1997C307.283 37.8371 307.36 38.4157 307.593 38.8904C307.828 39.3651 308.465 39.5584 309.504 39.4717C310.801 39.3637 312.567 38.5637 314.8 37.0944C317.031 35.6251 319.409 33.7931 321.929 31.6037C324.445 29.4157 326.923 27.0037 329.364 24.3651C331.805 21.7264 333.863 19.0317 335.597 16.6397" fill="#231F20"/>
<path d="M73.0606 21.864L76.0606 15.1973L79.7273 21.864H86.0606L81.0606 27.5307L83.0606 33.5307L77.0606 31.1973L71.0606 35.5307V28.1973L65.7273 22.5307L73.0606 21.864Z" fill="#53C6D4"/>
<path d="M156.822 10.7606L161.395 0.596572L166.986 10.7606H176.642L169.018 19.3992L172.068 28.5472L162.92 24.9899L153.772 31.5966V20.4166L145.642 11.7766L156.822 10.7606Z" fill="#F9AB1B"/>
<path d="M123.809 32.2064L126.658 25.8744L130.141 32.2064H136.157L131.407 37.5891L133.307 43.2877L127.609 41.0717L121.909 45.1877V38.2224L116.843 32.8397L123.809 32.2064Z" fill="#F9AB1B"/>
</svg>
