<svg width="400" height="400" viewBox="0 0 400 400" fill="none" xmlns="http://www.w3.org/2000/svg">
<rect width="400" height="400" fill="white"/>
<path d="M106.84 141.029C106.84 137.733 99.9971 138.479 99.9971 133.897C99.9971 131.7 101.861 130 104.442 130C106.061 130 107.332 130.539 108.15 131.224L107.146 132.508C106.43 131.928 105.549 131.513 104.34 131.513C102.66 131.513 101.656 132.467 101.656 133.793C101.656 137.152 108.5 136.447 108.5 140.925C108.5 143.123 106.778 144.947 103.705 144.947C101.534 144.947 100.037 144.16 99.2184 143.413L100.181 142.087C100.98 142.751 102.128 143.455 103.848 143.455C105.794 143.455 106.84 142.377 106.84 141.029Z" fill="#231F20"/>
<path d="M106.84 141.029C106.84 137.733 99.9971 138.479 99.9971 133.897C99.9971 131.7 101.861 130 104.442 130C106.061 130 107.332 130.539 108.15 131.224L107.146 132.508C106.43 131.928 105.549 131.513 104.34 131.513C102.66 131.513 101.656 132.467 101.656 133.793C101.656 137.152 108.5 136.447 108.5 140.925C108.5 143.123 106.778 144.947 103.705 144.947C101.534 144.947 100.037 144.16 99.2184 143.413L100.181 142.087C100.98 142.751 102.128 143.455 103.848 143.455C105.794 143.455 106.84 142.377 106.84 141.029Z" stroke="#231F20" stroke-width="0.333333" stroke-miterlimit="10"/>
<path d="M112.555 144.74V130.208H120.176V131.679H114.193V136.634H119.459V138.106H114.193V143.268H120.463V144.74H112.555Z" fill="#231F20"/>
<path d="M112.555 144.74V130.208H120.176V131.679H114.193V136.634H119.459V138.106H114.193V143.268H120.463V144.74H112.555Z" stroke="#231F20" stroke-width="0.333333" stroke-miterlimit="10"/>
<path d="M126.116 137.277H127.96C129.947 137.277 131.197 136.489 131.197 134.478C131.197 132.446 130.029 131.679 127.857 131.679H126.116V137.277ZM128.083 130.207C131.073 130.207 132.876 131.389 132.876 134.291C132.876 136.675 131.361 138.065 129.64 138.251V138.334C130.213 138.603 130.725 139.081 131.381 140.199L134.024 144.741H132.077L129.476 140.097C128.923 139.142 128.287 138.707 127.243 138.707H126.116V144.741H124.477V130.207H128.083Z" fill="#231F20"/>
<path d="M126.116 137.277H127.96C129.947 137.277 131.197 136.489 131.197 134.478C131.197 132.446 130.029 131.679 127.857 131.679H126.116V137.277ZM128.083 130.207C131.073 130.207 132.876 131.389 132.876 134.291C132.876 136.675 131.361 138.065 129.64 138.251V138.334C130.213 138.603 130.725 139.081 131.381 140.199L134.024 144.741H132.077L129.476 140.097C128.923 139.142 128.287 138.707 127.243 138.707H126.116V144.741H124.477V130.207H128.083Z" stroke="#231F20" stroke-width="0.333333" stroke-miterlimit="10"/>
<path d="M135.293 130.208H137.074L140.374 140.656C140.66 141.589 140.968 142.542 141.234 143.476H141.317C141.582 142.542 141.89 141.61 142.177 140.656L145.496 130.208H147.176L142.484 144.74H139.985L135.293 130.208Z" fill="#231F20"/>
<path d="M135.293 130.208H137.074L140.374 140.656C140.66 141.589 140.968 142.542 141.234 143.476H141.317C141.582 142.542 141.89 141.61 142.177 140.656L145.496 130.208H147.176L142.484 144.74H139.985L135.293 130.208Z" stroke="#231F20" stroke-width="0.333333" stroke-miterlimit="10"/>
<path d="M150.637 130.208H152.276V144.74H150.637V130.208Z" fill="#231F20" stroke="#231F20" stroke-width="0.333333" stroke-miterlimit="10"/>
<path d="M162.661 130C164.853 130 166.001 130.788 166.472 131.203L165.448 132.467C164.833 131.948 163.993 131.493 162.497 131.493C159.997 131.493 158.461 133.337 158.461 137.443C158.461 141.381 159.916 143.435 162.661 143.435C164.116 143.435 164.956 143.04 165.468 142.543L166.369 143.724C165.735 144.347 164.485 144.947 162.436 144.947C158.481 144.947 156.781 142.065 156.781 137.588C156.781 132.82 158.829 130 162.661 130Z" fill="#231F20"/>
<path d="M162.661 130C164.853 130 166.001 130.788 166.472 131.203L165.448 132.467C164.833 131.948 163.993 131.493 162.497 131.493C159.997 131.493 158.461 133.337 158.461 137.443C158.461 141.381 159.916 143.435 162.661 143.435C164.116 143.435 164.956 143.04 165.468 142.543L166.369 143.724C165.735 144.347 164.485 144.947 162.436 144.947C158.481 144.947 156.781 142.065 156.781 137.588C156.781 132.82 158.829 130 162.661 130Z" stroke="#231F20" stroke-width="0.333333" stroke-miterlimit="10"/>
<path d="M170.447 130.208H172.085V144.74H170.447V130.208Z" fill="#231F20" stroke="#231F20" stroke-width="0.333333" stroke-miterlimit="10"/>
<path d="M182.184 143.455C184.56 143.455 186.056 142.044 186.056 137.546C186.056 133.006 184.519 131.492 182.123 131.492C179.787 131.492 178.271 132.882 178.271 137.4C178.271 141.942 179.807 143.455 182.184 143.455ZM182.081 144.947C178.66 144.947 176.591 142.895 176.591 137.546C176.591 132.178 178.783 130 182.245 130C185.647 130 187.736 132.052 187.736 137.4C187.736 142.771 185.523 144.947 182.081 144.947" fill="#231F20"/>
<path d="M182.184 143.455C184.56 143.455 186.056 142.044 186.056 137.546C186.056 133.006 184.519 131.492 182.123 131.492C179.787 131.492 178.271 132.882 178.271 137.4C178.271 141.942 179.807 143.455 182.184 143.455ZM182.081 144.947C178.66 144.947 176.591 142.895 176.591 137.546C176.591 132.178 178.783 130 182.245 130C185.647 130 187.736 132.052 187.736 137.4C187.736 142.771 185.523 144.947 182.081 144.947V144.947Z" stroke="#231F20" stroke-width="0.333333" stroke-miterlimit="10"/>
<path d="M198.368 141.029C198.368 137.733 191.525 138.479 191.525 133.897C191.525 131.7 193.389 130 195.97 130C197.589 130 198.86 130.539 199.678 131.224L198.674 132.508C197.958 131.928 197.077 131.513 195.868 131.513C194.188 131.513 193.184 132.467 193.184 133.793C193.184 137.152 200.028 136.447 200.028 140.925C200.028 143.123 198.306 144.947 195.233 144.947C193.061 144.947 191.565 144.16 190.746 143.413L191.709 142.087C192.508 142.751 193.656 143.455 195.376 143.455C197.322 143.455 198.368 142.377 198.368 141.029Z" fill="#231F20"/>
<path d="M198.368 141.029C198.368 137.733 191.525 138.479 191.525 133.897C191.525 131.7 193.389 130 195.97 130C197.589 130 198.86 130.539 199.678 131.224L198.674 132.508C197.958 131.928 197.077 131.513 195.868 131.513C194.188 131.513 193.184 132.467 193.184 133.793C193.184 137.152 200.028 136.447 200.028 140.925C200.028 143.123 198.306 144.947 195.233 144.947C193.061 144.947 191.565 144.16 190.746 143.413L191.709 142.087C192.508 142.751 193.656 143.455 195.376 143.455C197.322 143.455 198.368 142.377 198.368 141.029Z" stroke="#231F20" stroke-width="0.333333" stroke-miterlimit="10"/>
<path d="M213.152 130.208V143.268H219.318V144.74H211.513V130.208H213.152Z" fill="#231F20"/>
<path d="M213.152 130.208V143.268H219.318V144.74H211.513V130.208H213.152Z" stroke="#231F20" stroke-width="0.333333" stroke-miterlimit="10"/>
<path d="M227.124 143.455C229.5 143.455 230.996 142.044 230.996 137.546C230.996 133.006 229.458 131.492 227.062 131.492C224.726 131.492 223.21 132.882 223.21 137.4C223.21 141.942 224.746 143.455 227.124 143.455ZM227.021 144.947C223.6 144.947 221.53 142.895 221.53 137.546C221.53 132.178 223.722 130 227.185 130C230.586 130 232.676 132.052 232.676 137.4C232.676 142.771 230.462 144.947 227.021 144.947" fill="#231F20"/>
<path d="M227.124 143.455C229.5 143.455 230.996 142.044 230.996 137.546C230.996 133.006 229.458 131.492 227.062 131.492C224.726 131.492 223.21 132.882 223.21 137.4C223.21 141.942 224.746 143.455 227.124 143.455ZM227.021 144.947C223.6 144.947 221.53 142.895 221.53 137.546C221.53 132.178 223.722 130 227.185 130C230.586 130 232.676 132.052 232.676 137.4C232.676 142.771 230.462 144.947 227.021 144.947V144.947Z" stroke="#231F20" stroke-width="0.333333" stroke-miterlimit="10"/>
<path d="M245.478 139.889V130.208H247.117V139.681C247.117 143.185 245.109 144.947 241.893 144.947C238.656 144.947 236.914 143.061 236.914 139.931V130.208H238.553V139.681C238.553 142.293 239.926 143.455 242.077 143.455C244.168 143.455 245.478 142.48 245.478 139.889Z" fill="#231F20"/>
<path d="M245.478 139.889V130.208H247.117V139.681C247.117 143.185 245.109 144.947 241.893 144.947C238.656 144.947 236.914 143.061 236.914 139.931V130.208H238.553V139.681C238.553 142.293 239.926 143.455 242.077 143.455C244.168 143.455 245.478 142.48 245.478 139.889Z" stroke="#231F20" stroke-width="0.333333" stroke-miterlimit="10"/>
<path d="M253.549 132.177C253.591 133.421 253.611 134.583 253.611 136.033V144.74H252.053V130.208H254.348L259.184 139.412C259.736 140.469 260.331 141.611 260.843 142.688H260.987C260.945 141.361 260.945 140.013 260.945 138.791V130.208H262.481V144.74H260.228L255.352 135.473C254.779 134.396 254.245 133.296 253.713 132.177H253.549Z" fill="#231F20"/>
<path d="M253.549 132.177C253.591 133.421 253.611 134.583 253.611 136.033V144.74H252.053V130.208H254.348L259.184 139.412C259.736 140.469 260.331 141.611 260.843 142.688H260.987C260.945 141.361 260.945 140.013 260.945 138.791V130.208H262.481V144.74H260.228L255.352 135.473C254.779 134.396 254.245 133.296 253.713 132.177H253.549Z" stroke="#231F20" stroke-width="0.333333" stroke-miterlimit="10"/>
<path d="M276.924 131.244L275.858 132.508C275.244 131.908 274.301 131.514 272.868 131.514C270.778 131.514 268.482 132.634 268.482 137.38C268.482 141.755 270.02 143.496 272.826 143.496C273.749 143.496 274.773 143.31 275.346 142.916V137.36H276.985V143.642C276.062 144.408 274.69 144.947 272.478 144.947C268.77 144.947 266.804 142.48 266.804 137.526C266.804 132.28 269.548 130 272.97 130C275.346 130 276.452 130.788 276.924 131.244Z" fill="#231F20"/>
<path d="M276.924 131.244L275.858 132.508C275.244 131.908 274.301 131.514 272.868 131.514C270.778 131.514 268.482 132.634 268.482 137.38C268.482 141.755 270.02 143.496 272.826 143.496C273.749 143.496 274.773 143.31 275.346 142.916V137.36H276.985V143.642C276.062 144.408 274.69 144.947 272.478 144.947C268.77 144.947 266.804 142.48 266.804 137.526C266.804 132.28 269.548 130 272.97 130C275.346 130 276.452 130.788 276.924 131.244Z" stroke="#231F20" stroke-width="0.333333" stroke-miterlimit="10"/>
<path d="M281.634 144.74V130.208H289.255V131.679H283.273V136.634H288.538V138.106H283.273V143.268H289.542V144.74H281.634Z" fill="#231F20"/>
<path d="M281.634 144.74V130.208H289.255V131.679H283.273V136.634H288.538V138.106H283.273V143.268H289.542V144.74H281.634Z" stroke="#231F20" stroke-width="0.333333" stroke-miterlimit="10"/>
<path d="M52.9147 261.454C51.4533 261.541 49.9027 261.509 48.2653 261.347C46.6267 261.186 44.9987 260.862 43.38 260.387C41.76 259.913 40.2 259.249 38.7 258.394C37.2 257.538 35.8773 256.47 34.7333 255.193C33.588 253.915 32.6787 252.411 32.0067 250.689C31.336 248.965 31 246.986 31 244.759C31 242.53 31.552 240.543 32.656 238.782C33.7613 237.022 35.2027 235.459 36.9773 234.086C38.752 232.713 40.7533 231.511 42.9827 230.47C45.2107 229.429 47.4187 228.537 49.6093 227.803C51.7987 227.071 53.8707 226.486 55.8227 226.054C57.776 225.621 60.6453 225.215 60.6453 225.215C60.664 225.155 59.3387 223.961 58.824 223.186C58.38 222.518 57.932 221.678 57.5587 220.689C57.188 219.699 57 218.539 57 217.211C57 215.677 57.5493 214.138 58.6467 212.585C59.744 211.031 61.1933 209.617 62.9987 208.326C64.804 207.038 66.8813 205.918 69.2307 204.954C71.58 203.99 73.9987 203.325 76.4867 202.965C79.012 202.598 81.076 202.55 82.6747 202.845C84.2747 203.141 85.5293 203.578 86.4373 204.166C87.3453 204.755 87.9787 205.389 88.3333 206.069C88.6893 206.749 88.8653 207.262 88.8653 207.606C88.8653 207.986 88.7853 208.266 88.628 208.449C88.4707 208.631 88.2827 208.759 88.0667 208.83C87.8493 208.902 87.66 208.907 87.5027 208.847C87.3453 208.787 87.2973 208.635 87.2667 208.551C87.0867 208.065 86.0227 207.451 85.0747 207.055C84.2467 206.709 83.1387 206.457 81.7573 206.294C80.376 206.133 78.5987 206.213 76.428 206.525C74.4533 206.809 72.7267 207.406 71.2467 208.318C69.7667 209.231 68.5293 210.229 67.544 211.322C66.556 212.415 65.816 213.501 65.3227 214.582C64.8307 215.662 64.5827 216.51 64.5827 217.125C64.5827 218.527 64.7587 219.661 65.1147 220.529C65.4707 221.395 65.9147 222.099 66.448 222.637C66.9813 223.177 67.5533 223.563 68.1653 223.799C68.7773 224.037 69.352 224.218 69.884 224.342C70.416 224.465 70.8613 224.558 71.2173 224.617C71.572 224.675 71.748 224.773 71.748 224.91C71.748 225.149 71.7293 225.398 71.6907 225.661C71.6507 225.923 71.4427 226.191 71.068 226.459C70.692 226.729 70.0507 226.986 69.1427 227.23C68.2333 227.474 66.912 227.697 65.1747 227.883C61.392 228.287 58.0253 229.033 55.072 230.149C52.1173 231.266 49.6373 232.603 47.6293 234.19C45.6213 235.777 44.084 237.547 43.0213 239.521C41.9573 241.494 41.424 243.543 41.424 245.678C41.424 247.407 41.6707 249.051 42.164 250.613C42.6573 252.173 43.388 253.55 44.356 254.737C45.324 255.922 46.508 256.842 47.9093 257.49C49.3107 258.139 50.9013 258.411 52.6773 258.303C54.0587 258.219 55.144 258.085 55.9347 257.909C56.724 257.733 57.3187 257.537 57.712 257.346C58.1373 257.139 58.5107 256.77 58.4813 256.673C58.4693 256.633 58.3493 256.453 58.304 256.226C58.272 256.063 58.2347 255.793 58.216 255.419C58.1947 255.045 58.1853 254.535 58.1853 253.886C58.1853 253.239 58.332 252.673 58.624 252.19C58.916 251.705 59.24 251.259 59.5907 250.906C60 250.494 60.9973 249.813 60.9973 249.813C61.012 249.825 60.7213 250.743 60.76 251.317C60.8 251.894 60.9147 252.443 61.0573 252.934C61.2267 253.517 61.5787 254.722 61.7133 254.769C61.8973 254.834 62.9427 254.065 63.4427 253.641C63.8787 253.271 64.2787 252.783 64.6373 252.218C64.996 251.654 65.1747 250.997 65.1747 250.245C65.1747 249.493 65.016 248.967 64.696 248.674C64.3773 248.382 64.0253 248.167 63.6733 248.081C63.2507 247.975 62.232 248.111 62.232 248.111C62.2107 248.085 62.6093 247.466 62.8867 247.182C63.112 246.954 63.4427 246.729 63.84 246.502C64.2373 246.277 64.732 246.134 65.3293 246.074C66.48 245.958 67.472 246.21 68.3053 246.839C69.14 247.47 69.5573 248.602 69.5573 250.247C69.5573 250.966 69.3693 251.69 68.9947 252.415C68.6187 253.141 68.136 253.825 67.544 254.467C66.9507 255.11 66.3 255.725 65.5893 256.307C64.8787 256.89 63.54 257.683 63.516 257.834C63.4413 258.305 65.9453 260.505 67.3667 261.543C68.788 262.582 70.268 263.401 71.808 264.002C73.348 264.602 74.8773 264.965 76.3973 265.09C77.916 265.213 79.3933 265.074 80.7507 264.638C81.416 264.425 81.964 264.17 82.3787 263.907C82.7933 263.643 83.12 263.387 83.3573 263.149C83.6333 262.87 83.9707 262.443 83.948 262.342C83.9173 262.201 83.5453 261.798 83.5653 261.417C83.5853 261.034 83.6827 260.73 83.86 260.499C84.0373 260.267 84.2467 260.174 84.4827 260.226C84.72 260.278 84.9213 260.627 85.0747 261.257C85.236 261.918 85.212 262.611 85.0147 263.329C84.8173 264.046 84.4213 264.766 83.8307 265.486C83.2373 266.205 82.4387 266.879 81.432 267.513C80.424 268.145 79.1453 268.695 77.612 269.163C75.9587 269.67 74.3133 269.77 72.6947 269.437C71.076 269.102 69.5173 268.482 68.0173 267.589C66.5173 266.694 65.1053 265.559 63.7827 264.191C62.4587 262.822 60.7907 259.905 60.2587 259.755C60.0453 259.695 58.9813 260.297 58.244 260.531C57.5773 260.742 56.7933 260.943 55.9053 261.107C55.0173 261.271 54.02 261.387 52.9147 261.454Z" fill="#231F20"/>
<path d="M97.6861 250.024C96.2835 250.269 95.1021 250.036 94.1421 249.333C93.1821 248.632 92.4795 247.725 92.0381 246.617C91.5981 245.511 91.4408 244.299 91.5715 242.983C91.6995 241.667 92.9341 239.451 92.9341 239.451C92.9341 239.451 89.4155 244.075 87.7155 246.017C86.9875 246.849 86.2381 247.668 85.4595 248.464C84.6808 249.26 83.8981 249.977 83.1195 250.608C82.3408 251.24 81.5901 251.764 80.8635 252.179C80.1355 252.596 79.4861 252.841 78.9141 252.917C78.0835 253.028 77.2648 252.996 76.4608 252.82C75.6555 252.644 74.9421 252.289 74.3195 251.765C73.6955 251.24 73.2155 250.549 72.8795 249.685C72.5421 248.823 72.4341 247.723 72.5288 246.411C72.5848 245.643 72.9675 244.553 73.6955 243.156C74.4221 241.759 75.3181 240.203 76.3835 238.481C77.4461 236.761 78.5901 234.932 79.8101 232.996C81.0301 231.061 82.1715 229.173 83.2368 227.336C84.2995 225.5 85.1968 223.784 85.9248 222.195C86.6501 220.607 87.0528 219.24 87.1701 218.152C87.2155 217.74 87.6261 217.511 88.3781 217.476C89.1301 217.441 89.9341 217.62 90.7915 218.017C91.6475 218.416 92.4168 219.043 93.0915 219.9C93.7661 220.759 94.0741 221.905 93.9475 223.259C93.8608 224.169 93.3248 225.516 92.3888 227.244C91.4555 228.972 90.3381 230.852 89.0408 232.877C87.7421 234.904 86.4048 236.952 85.0288 239.017C83.6528 241.084 82.4715 242.941 81.4861 244.597C80.4995 246.252 79.8355 247.576 79.4981 248.569C79.1608 249.563 79.4355 250.003 80.3181 249.883C80.6301 249.839 81.4861 249.148 82.8875 247.792C84.2888 246.437 85.9515 244.687 87.8728 242.525C89.7941 240.365 91.8315 237.952 93.9875 235.285C96.1408 232.619 98.1395 229.957 99.9835 227.311C101.825 224.665 103.371 222.199 104.618 219.92C105.863 217.641 106.513 215.792 106.643 214.477C106.685 214.064 107.073 213.865 107.773 213.903C108.473 213.941 109.241 214.181 110.07 214.623C110.901 215.064 111.627 215.756 112.25 216.697C112.874 217.64 113.119 218.821 113.029 220.205C112.969 221.123 112.485 222.473 111.55 224.223C110.615 225.976 109.525 227.871 108.279 229.905C107.033 231.939 105.734 233.997 104.383 236.081C103.034 238.167 101.865 240.025 100.879 241.663C99.8928 243.304 99.2301 244.616 98.8928 245.609C98.5541 246.605 98.7768 247.035 99.5568 246.895C99.9715 246.821 100.633 246.391 101.542 245.608C102.45 244.827 103.527 243.784 104.773 242.473C106.019 241.164 107.383 239.656 108.863 237.941C110.343 236.231 111.849 234.423 113.381 232.523C114.911 230.623 116.391 228.701 117.819 226.76C119.247 224.821 120.554 222.932 121.677 221.116C121.937 220.695 122.259 220.387 122.649 220.205C123.038 220.024 123.362 219.972 123.622 220.051C123.881 220.128 124.023 220.337 124.05 220.676C124.077 221.015 123.869 221.512 123.466 222.156C123.205 222.576 122.543 223.551 121.481 225.052C120.415 226.555 119.13 228.321 117.625 230.345C116.118 232.369 114.457 234.487 112.639 236.693C110.822 238.9 109.006 240.957 107.189 242.864C105.371 244.773 103.631 246.387 101.97 247.719C100.309 249.049 98.8795 249.816 97.6861 250.024Z" fill="#231F20"/>
<path d="M124.712 211.87C124.712 212.515 124.777 213.038 124.908 213.446C125.037 213.853 125.224 214.195 125.413 214.465C125.624 214.763 126.067 215.275 126.115 215.266C126.651 215.162 128.373 211.142 129.463 209.219C130.553 207.298 131.451 205.603 132.152 204.139C132.852 202.675 133.307 201.533 133.515 200.721C133.723 199.909 133.487 199.587 132.812 199.755C132.137 199.925 131.345 200.491 130.437 201.451C129.528 202.413 128.645 203.526 127.788 204.791C126.932 206.058 126.204 207.346 125.608 208.661C125.011 209.975 124.712 211.042 124.712 211.87ZM152.669 252.425C153.029 251.777 153.421 251.539 153.837 251.713C154.044 251.799 154.303 252.021 154.305 252.15C154.321 252.806 153.119 254.211 152.203 255.189C151.423 256.018 150.375 256.866 149.051 257.679C147.727 258.493 146.051 259.147 144.027 259.637C142.001 260.125 139.86 260.217 137.601 259.915C135.343 259.613 133.265 258.842 131.371 257.615C129.476 256.389 127.916 254.654 126.697 252.421C125.476 250.185 124.868 247.39 124.868 244.037C124.868 241.599 125.244 239.067 125.997 236.435C126.749 233.805 127.672 231.231 128.763 228.721C129.852 226.21 131.008 223.865 132.228 221.681C133.448 219.497 135.461 216.185 135.461 216.185C135.439 216.163 132.813 217.759 130.944 218.67C129.075 219.582 127.021 220.298 124.791 220.814C124.217 220.947 123.595 221.001 122.92 220.971C122.245 220.942 121.596 220.687 120.973 220.209C120.351 219.73 119.832 218.962 119.417 217.91C119.003 216.858 118.793 215.39 118.793 213.509C118.793 210.803 119.299 208.214 120.312 205.731C121.324 203.251 122.581 201.017 124.088 199.026C125.593 197.037 127.191 195.37 128.879 194.031C130.565 192.694 132.083 191.851 133.435 191.509C134.887 191.139 136.135 191.21 137.172 191.727C138.211 192.243 138.732 193.218 138.732 194.647C138.732 195.341 138.575 196.178 138.264 197.159C137.952 198.141 137.536 199.206 137.017 200.354C136.497 201.502 135.916 202.678 135.267 203.879C134.617 205.081 133.955 206.251 133.281 207.385C131.673 210.09 127.905 215.875 127.905 215.875C127.935 215.905 131.62 213.269 133.28 212.086C134.671 211.094 136.032 210.137 137.329 209.21C138.628 208.283 139.487 207.641 139.903 207.309C140.413 206.898 140.939 206.479 141.459 206.042C141.977 205.609 142.599 205.527 143.249 205.823C143.556 205.962 144.107 206.247 144.885 206.645C145.664 207.043 146.364 207.554 146.987 208.177C147.609 208.802 148.013 209.543 148.195 210.398C148.376 211.255 148.005 212.242 147.143 213.349C146.257 214.487 145.027 216.263 143.444 218.613C141.859 220.961 140.301 223.607 138.771 226.551C137.239 229.494 135.916 232.586 134.8 235.827C133.683 239.071 133.123 242.185 133.123 245.181C133.123 248.178 133.54 250.55 134.369 252.293C135.199 254.037 136.212 255.325 137.407 256.151C138.601 256.979 139.897 257.445 141.299 257.549C142.701 257.653 143.973 257.565 145.116 257.287C147.451 256.719 149.189 255.953 150.333 254.995C151.475 254.038 152.252 253.174 152.669 252.425" fill="#231F20"/>
<path d="M174.007 223.773C173.434 223.931 172.902 223.982 172.411 223.931C171.919 223.881 171.304 223.606 171.202 223.634C171.015 223.685 170.607 224.539 170.347 224.778C170.263 224.854 170.142 224.997 170.036 225.142C169.948 225.265 169.814 225.415 169.684 225.59C169.554 225.766 169.414 225.989 169.256 226.198C167.574 228.459 165.36 230.595 163.182 232.527C161.002 234.463 158.079 235.682 156.642 236.702C156.591 236.738 156.512 236.807 156.41 236.834C156.202 236.887 156.07 236.941 156.019 237.001C155.707 237.082 155.552 237.123 155.242 237.203C154.463 237.406 153.591 237.517 152.632 237.531C151.672 237.546 150.764 237.35 149.907 236.942C149.051 236.534 148.338 235.835 147.766 234.845C147.195 233.855 146.91 232.431 146.91 230.578C146.91 228.493 147.284 226.311 148.038 224.031C148.79 221.751 149.803 219.495 151.075 217.257C152.347 215.019 153.799 212.845 155.435 210.731C157.07 208.617 158.756 206.702 160.496 204.99C162.235 203.277 163.96 201.83 165.674 200.65C167.387 199.47 168.946 198.679 170.347 198.282C172.528 197.663 174.394 197.681 175.951 198.334C177.511 198.989 178.782 199.926 179.768 201.143C179.924 201.334 179.767 201.685 179.3 202.193C178.834 202.701 177.718 203.206 175.952 203.707C173.826 204.311 171.694 205.533 169.567 207.366C167.438 209.201 165.467 211.29 163.648 213.629C161.832 215.969 160.236 218.393 158.86 220.903C157.484 223.413 156.434 225.678 155.707 227.705C154.979 229.734 154.658 231.355 154.735 232.565C154.812 233.777 155.423 234.23 156.566 233.93C157.707 233.631 159.031 232.866 160.536 231.627C162.042 230.389 163.467 229.023 164.819 227.613C166.396 225.967 169.55 223.227 169.646 222.167C169.658 222.025 169.37 221.501 169.256 221.082C169.167 220.746 169.074 220.315 169.023 219.815C168.972 219.319 168.946 218.741 168.946 218.085C168.946 216.685 169.347 215.383 170.152 214.179C170.956 212.974 171.838 212.086 172.798 211.513C173.759 210.939 174.642 210.786 175.446 211.05C176.251 211.315 176.654 212.171 176.654 213.623C176.654 214.279 176.316 215.242 175.643 216.507C174.966 217.774 172.659 220.693 172.759 221.169C172.766 221.202 173.088 221.278 173.424 221.301C173.759 221.325 174.032 221.307 174.24 221.249C175.174 220.991 176.107 220.414 177.042 219.522C177.978 218.63 178.99 217.431 180.078 215.931C181.17 214.429 182.347 212.642 183.62 210.566C184.895 208.491 186.338 206.142 187.866 203.541C188.127 203.094 188.45 202.747 188.84 202.517C189.228 202.289 189.554 202.206 189.814 202.273C190.072 202.338 190.215 202.559 190.242 202.927C190.267 203.298 190.06 203.826 189.658 204.506C189.396 204.951 188.995 205.695 188.45 206.721C187.906 207.746 187.23 208.915 186.424 210.226C185.618 211.538 184.726 212.931 183.739 214.407C182.752 215.883 181.727 217.265 180.664 218.546C179.602 219.829 178.496 220.945 177.356 221.894C176.212 222.845 175.095 223.471 174.007 223.773Z" fill="#231F20"/>
<path d="M188.878 224.626C189.657 224.408 190.822 223.449 192.381 221.737C193.938 220.029 195.626 217.961 197.443 215.534C199.261 213.109 201.09 210.512 202.933 207.738C204.774 204.968 206.346 202.434 207.645 200.144C208.941 197.854 209.837 195.996 210.33 194.573C210.823 193.15 210.654 192.56 209.823 192.8C209.201 192.981 208.226 193.701 206.902 194.96C205.578 196.22 204.127 197.788 202.543 199.662C200.959 201.537 199.323 203.624 197.638 205.924C195.951 208.225 194.406 210.506 193.005 212.765C191.602 215.026 190.461 217.16 189.578 219.173C188.695 221.185 188.254 222.876 188.254 224.237C188.254 224.332 188.281 224.42 188.333 224.5C188.437 224.658 188.618 224.7 188.878 224.626ZM208.187 218.99C208.759 218.83 209.889 217.853 211.575 216.05C213.261 214.25 215.183 212.013 217.338 209.341C219.49 206.67 221.699 203.768 223.957 200.634C226.214 197.501 228.173 194.39 229.911 191.636C230.205 191.172 230.559 190.821 230.922 190.6C231.286 190.38 231.611 190.301 231.897 190.365C232.182 190.428 232.337 190.65 232.363 191.024C232.39 191.398 232.182 191.933 231.779 192.618C231.517 193.065 230.859 194.105 229.795 195.713C228.731 197.322 227.433 199.212 225.902 201.377C224.371 203.544 222.682 205.849 220.841 208.29C218.997 210.732 217.169 213.014 215.351 215.136C213.534 217.258 211.795 219.072 210.135 220.577C208.473 222.085 207.045 223.005 205.851 223.338C204.917 223.6 204.021 223.697 203.166 223.629C202.311 223.561 201.557 223.265 200.907 222.738C200.258 222.212 199.726 221.416 199.311 220.354C198.897 219.293 198.687 216.21 198.687 216.21C198.573 216.174 195.757 220.338 194.406 222.017C193.227 223.484 191.978 224.865 190.707 226.161C189.434 227.46 188.385 228.222 187.554 228.454C186.723 228.685 185.825 228.781 184.867 228.742C183.906 228.704 183.013 228.449 182.182 227.976C181.35 227.502 180.662 226.788 180.117 225.837C179.571 224.888 179.299 223.616 179.299 222.02C179.299 220.428 179.766 218.541 180.701 216.353C181.634 214.168 182.87 211.884 184.402 209.5C185.931 207.117 187.658 204.738 189.578 202.374C191.498 200.01 193.434 197.838 195.379 195.858C197.326 193.878 199.182 192.202 200.946 190.837C202.71 189.47 204.215 188.608 205.462 188.244C206.81 187.849 207.955 187.741 208.89 187.92C209.823 188.098 210.598 188.356 211.145 188.717C211.763 189.125 212.626 190.352 212.626 190.352C213.451 190.353 218.607 179.546 221.113 174.918C222.183 172.942 223.254 170.952 224.266 168.966C225.278 166.981 226.185 165.144 226.991 163.456C227.795 161.766 228.445 160.302 228.938 159.061C229.433 157.82 229.678 156.934 229.678 156.409C229.678 155.837 230.027 155.353 230.729 154.958C231.429 154.562 232.182 154.474 232.986 154.694C233.791 154.914 234.543 155.557 235.243 156.622C235.945 157.686 236.295 159.369 236.295 161.665C236.295 162.717 235.817 164.36 234.857 166.594C233.895 168.828 232.649 171.417 231.118 174.36C229.586 177.302 227.859 180.48 225.939 183.886C224.019 187.293 222.099 190.686 220.179 194.064C218.259 197.441 216.427 200.669 214.69 203.748C212.95 206.832 211.485 209.533 210.291 211.86C209.097 214.188 208.278 216.008 207.838 217.314C207.397 218.622 207.514 219.18 208.187 218.99Z" fill="#231F20"/>
<path d="M248.364 175.861C249.506 175.554 250.547 175.673 251.479 176.218C252.412 176.763 253.154 177.449 253.698 178.269C254.243 179.089 254.58 179.877 254.711 180.638C254.839 181.398 254.698 181.831 254.282 181.939C252.776 182.331 250.999 183.401 248.948 185.149C246.898 186.898 244.823 188.97 242.72 191.362C240.618 193.755 238.591 196.275 236.644 198.915C234.698 201.555 233.09 203.962 231.818 206.129C230.546 208.297 229.703 210.037 229.288 211.347C228.872 212.657 229.131 213.181 230.064 212.926C230.376 212.841 231.038 212.257 232.051 211.17C233.063 210.083 234.231 208.741 235.556 207.138C236.88 205.537 238.255 203.805 239.683 201.937C241.11 200.069 242.406 198.33 243.574 196.725C244.742 195.119 245.676 193.742 246.378 192.595C247.078 191.45 247.386 190.742 247.274 190.558C247.111 190.287 247.232 190.066 247.779 189.921C248.323 189.778 248.976 189.795 249.728 189.983C250.478 190.17 251.18 190.59 251.828 191.238C252.476 191.887 252.802 192.862 252.802 194.161C252.802 195.459 252.438 196.963 251.711 198.665C250.984 200.366 250.232 201.953 249.454 203.427C248.674 204.902 248.079 206.113 247.664 207.059C247.247 208.009 247.352 208.402 247.975 208.242C248.598 208.081 249.714 207.122 251.322 205.363C252.931 203.607 254.75 201.423 256.775 198.819C258.799 196.214 260.902 193.377 263.083 190.305C265.262 187.233 267.186 184.173 268.924 181.451C269.216 180.994 269.572 180.654 269.936 180.445C270.299 180.238 270.622 180.169 270.908 180.247C271.192 180.325 271.351 180.557 271.378 180.937C271.403 181.318 271.215 181.871 270.794 182.527C270.5 182.986 269.819 184.005 268.807 185.578C267.795 187.15 266.56 188.997 265.107 191.111C263.652 193.231 262.044 195.482 260.279 197.873C258.512 200.263 256.744 202.497 254.98 204.574C253.215 206.651 251.528 208.414 249.92 209.861C248.311 211.31 246.911 212.19 245.718 212.498C244.938 212.699 244.158 212.662 243.379 212.386C242.6 212.11 241.927 211.711 241.356 211.191C240.787 210.671 240.318 210.098 239.955 209.478C239.592 208.857 239.41 208.331 239.41 207.901C239.41 207.47 239.475 206.982 239.604 206.445C239.734 205.907 239.874 205.395 240.032 204.931C240.228 204.355 240.734 203.165 240.734 203.165C240.715 203.154 237.095 207.87 235.439 209.895C234.038 211.609 232.638 213.21 231.236 214.687C229.834 216.165 228.768 217.002 228.042 217.199C227.314 217.398 226.534 217.406 225.704 217.229C224.874 217.051 224.083 216.707 223.332 216.201C222.58 215.694 221.955 215.001 221.462 214.113C220.968 213.227 220.723 212.139 220.723 210.855C220.723 209.477 221.202 207.714 222.164 205.563C223.124 203.415 224.382 201.111 225.939 198.649C227.498 196.186 229.276 193.686 231.275 191.146C233.272 188.609 235.295 186.265 237.347 184.118C239.396 181.971 241.382 180.157 243.302 178.673C245.222 177.19 246.911 176.251 248.364 175.861Z" fill="#231F20"/>
<path d="M283.644 203.52C282.137 203.836 280.878 203.243 279.866 201.738C278.854 200.234 278.348 198.1 278.348 195.334C278.348 194.558 278.516 193.634 278.854 192.563C279.192 191.494 279.634 190.354 280.178 189.14C280.724 187.927 281.333 186.662 282.008 185.348C282.682 184.035 283.38 182.731 284.11 181.462C285.805 178.519 289.876 172.131 289.876 172.131C289.857 172.104 288.55 173.018 287.149 174.534C285.746 176.05 284.122 177.934 282.28 180.186C280.437 182.438 278.504 184.91 276.477 187.602C274.453 190.292 272.596 192.866 270.91 195.316C269.222 197.768 267.821 199.916 266.704 201.755C265.588 203.595 265.03 204.811 265.03 205.402C265.03 206.782 264.757 207.584 264.212 207.812C263.666 208.039 263.056 207.89 262.381 207.364C261.708 206.84 261.097 205.999 260.552 204.843C260.005 203.687 259.733 202.383 259.733 200.938C259.733 199.972 260.109 198.674 260.862 197.042C261.614 195.408 262.562 193.607 263.705 191.636C264.846 189.667 266.093 187.6 267.444 185.435C268.793 183.27 270.04 181.183 271.182 179.167C272.324 177.152 273.272 175.255 274.024 173.478C274.777 171.702 275.154 170.206 275.154 168.994C275.154 168.364 275.452 167.991 276.049 167.875C276.645 167.76 277.296 167.935 277.997 168.403C278.698 168.871 279.348 169.67 279.944 170.795C280.541 171.922 280.84 173.387 280.84 175.184C280.84 176.107 280.697 176.955 280.412 177.722C280.125 178.491 279.837 179.212 279.516 179.78C279.14 180.446 278.192 181.755 278.192 181.755C278.194 181.756 283.305 175.838 285.59 173.41C286.57 172.368 287.55 171.33 288.51 170.298C289.472 169.267 290.382 168.347 291.238 167.534C292.096 166.722 292.861 166.05 293.534 165.522C294.208 164.995 294.704 164.699 295.016 164.635C295.689 164.499 296.301 164.586 296.845 164.892C297.392 165.199 297.846 165.674 298.209 166.31C298.572 166.946 298.857 167.687 299.065 168.527C299.273 169.368 299.377 170.228 299.377 171.107C299.377 171.695 298.936 172.819 298.053 174.478C297.17 176.139 296.078 178.046 294.781 180.204C293.482 182.364 292.12 184.602 290.693 186.914C289.265 189.226 288.005 191.335 286.914 193.24C285.825 195.146 285.032 196.699 284.538 197.898C284.045 199.095 284.112 199.628 284.733 199.498C285.876 199.259 287.394 198.24 289.29 196.443C291.185 194.648 293.213 192.455 295.368 189.868C297.521 187.282 299.689 184.467 301.869 181.427C304.05 178.387 306.046 175.488 307.71 172.752C307.972 172.323 308.296 172.002 308.685 171.812C309.074 171.624 309.397 171.58 309.658 171.684C309.917 171.787 310.06 172.032 310.086 172.42C310.113 172.81 309.905 173.338 309.505 173.992C309.242 174.422 308.594 175.42 307.556 176.97C306.516 178.52 305.257 180.331 303.777 182.406C302.297 184.48 300.662 186.699 298.872 189.058C297.081 191.419 295.261 193.623 293.42 195.667C291.576 197.712 289.81 199.464 288.122 200.922C286.434 202.38 284.941 203.248 283.644 203.52Z" fill="#231F20"/>
<path d="M312.308 198.278C310.334 198.581 308.685 198.529 307.361 198.109C306.036 197.69 304.973 196.986 304.169 195.998C303.364 195.011 302.78 193.818 302.416 192.415C302.053 191.011 301.869 189.453 301.869 187.739C301.869 186.614 302.206 185.159 302.882 183.374C303.557 181.589 304.44 179.694 305.53 177.69C306.621 175.686 307.854 173.657 309.23 171.609C310.606 169.561 312.008 167.697 313.437 166.017C314.865 164.337 316.252 162.938 317.602 161.821C318.953 160.703 320.149 160.071 321.188 159.921C321.758 159.838 322.238 159.917 322.628 160.157C323.017 160.397 323.364 160.677 323.602 160.982C323.864 161.318 324.225 162.225 324.225 162.225C324.226 162.225 324.405 161.807 324.769 161.414C325.132 161.021 325.522 160.598 325.938 160.146C326.353 159.697 326.742 159.239 327.106 158.773C327.469 158.306 327.65 157.877 327.65 157.481C327.65 157.137 327.82 156.99 328.157 157.045C328.494 157.101 328.885 157.371 329.325 157.861C329.765 158.349 330.157 159.067 330.494 160.013C330.832 160.961 331 162.177 331 163.659C331 165.734 330.728 167.298 330.182 168.351C329.637 169.405 329.025 170.333 328.352 171.13C327.677 171.929 327.068 172.807 326.522 173.765C325.976 174.722 326.069 177.598 325.705 178.011C325.388 178.371 323.184 177.909 322.354 177.161C321.525 176.413 320.905 175.538 320.485 174.577C319.981 173.425 319.473 170.583 319.473 170.583C319.268 170.519 316.202 174.639 314.877 176.807C313.729 178.685 312.696 180.809 311.761 183.119C310.826 185.429 310.361 187.762 310.361 190.118C310.361 191.837 310.802 192.965 311.684 193.514C312.565 194.062 313.528 194.262 314.566 194.107C314.981 194.045 315.684 193.607 316.669 192.801C317.656 191.995 318.81 190.945 320.134 189.654C321.458 188.365 322.913 186.877 324.498 185.194C326.081 183.513 327.664 181.739 329.248 179.873C330.832 178.009 332.364 176.117 333.842 174.203C335.324 172.289 336.62 170.387 337.778 168.714C338.07 168.29 338.425 167.994 338.789 167.835C339.152 167.678 339.477 167.658 339.764 167.779C340.049 167.902 340.205 168.165 340.23 168.555C340.257 168.949 340.046 169.465 339.645 170.094C339.384 170.506 338.685 171.474 337.542 172.971C336.401 174.47 335.012 176.218 333.377 178.222C331.741 180.227 329.949 182.37 328.002 184.651C326.056 186.933 324.108 189.049 322.16 191.006C320.213 192.962 318.384 194.619 316.669 195.973C314.956 197.325 313.502 198.095 312.308 198.278Z" fill="#231F20"/>
<path d="M353.665 166.097C353.355 166.113 352.912 166.364 352.341 166.844C351.769 167.322 351.16 167.957 350.512 168.741C349.861 169.528 349.161 170.416 348.409 171.409C347.656 172.405 346.897 173.404 346.189 174.397C344.468 176.81 340.657 182.649 340.657 182.649C340.707 182.698 345.592 179.117 347.513 177.173C349.435 175.232 350.968 173.441 352.109 171.785C353.251 170.129 353.952 168.761 354.213 167.677C354.472 166.594 354.288 166.065 353.665 166.097ZM366.597 167.64C366.888 167.24 367.247 166.974 367.609 166.846C367.973 166.72 368.295 166.728 368.581 166.877C368.865 167.028 369.024 167.304 369.051 167.702C369.076 168.102 368.865 168.606 368.465 169.205C368.203 169.597 367.504 170.496 366.363 171.882C365.221 173.268 363.793 174.886 362.081 176.745C360.367 178.608 358.469 180.581 356.392 182.678C354.316 184.776 352.197 186.716 350.044 188.502C347.889 190.289 345.787 191.805 343.736 193.045C341.684 194.286 339.775 195.045 338.167 195.13C336.816 195.202 335.517 194.877 334.428 194.292C333.495 193.79 332.636 192.976 331.856 191.848C331.077 190.721 330.688 188.998 330.688 186.676C330.688 184.452 331.156 182.162 332.091 179.809C333.025 177.457 334.233 175.174 335.713 172.968C337.193 170.762 338.84 168.68 340.657 166.732C342.475 164.781 344.255 163.07 345.995 161.596C347.733 160.121 349.357 158.964 350.863 158.122C352.368 157.281 353.563 156.84 354.445 156.792C354.964 156.765 355.537 156.848 356.16 157.042C356.781 157.237 357.367 157.625 357.912 158.2C358.456 158.776 358.924 159.605 359.313 160.689C359.703 161.773 359.9 163.213 359.9 165.01C359.9 166.208 359.481 167.532 358.652 168.984C357.821 170.436 356.756 171.896 355.459 173.373C354.161 174.85 352.717 176.302 351.135 177.734C349.549 179.166 347.992 180.457 346.46 181.606C344.929 182.754 343.527 183.692 342.253 184.413C340.981 185.136 339.605 185.4 339.335 185.586C338.885 185.9 338.536 187.456 338.4 188.2C338.283 188.837 338.36 189.416 338.593 189.89C338.828 190.365 339.465 190.558 340.504 190.472C341.801 190.364 343.567 189.564 345.8 188.094C348.031 186.625 350.409 184.793 352.929 182.604C355.445 180.416 357.923 178.004 360.364 175.365C362.805 172.726 364.863 170.032 366.597 167.64" fill="#231F20"/>
<path d="M104.061 172.864L107.061 166.197L110.727 172.864H117.061L112.061 178.531L114.061 184.531L108.061 182.197L102.061 186.531V179.197L96.7273 173.531L104.061 172.864Z" fill="#53C6D4"/>
<path d="M187.822 161.761L192.395 151.597L197.986 161.761H207.642L200.018 170.399L203.068 179.547L193.92 175.99L184.772 182.597V171.417L176.642 162.777L187.822 161.761Z" fill="#F9AB1B"/>
<path d="M154.809 183.206L157.658 176.874L161.141 183.206H167.157L162.407 188.589L164.307 194.288L158.609 192.072L152.909 196.188V189.222L147.843 183.84L154.809 183.206Z" fill="#F9AB1B"/>
</svg>
