<svg width="272" height="113" viewBox="0 0 272 113" fill="none" xmlns="http://www.w3.org/2000/svg">
<path d="M60.8495 8.84961C60.8495 6.20561 55.3602 6.80294 55.3602 3.12694C55.3602 1.36427 56.8562 0.000274101 58.9282 0.000274101C60.2242 0.000274101 61.2455 0.433607 61.9029 0.981607L61.0975 2.01361C60.5215 1.54694 59.8149 1.21494 58.8442 1.21494C57.4962 1.21494 56.6922 1.98027 56.6922 3.04427C56.6922 5.73894 62.1815 5.17361 62.1815 8.76694C62.1815 10.5296 60.8015 11.9936 58.3349 11.9936C56.5935 11.9936 55.3922 11.3616 54.7362 10.7629L55.5082 9.69761C56.1495 10.2309 57.0695 10.7963 58.4495 10.7963C60.0122 10.7963 60.8495 9.93094 60.8495 8.84961" fill="white"/>
<path d="M65.4354 11.8275V0.166136H71.5501V1.34747H66.7501V5.32347H70.9754V6.5048H66.7501V10.6461H71.7808V11.8275H65.4354Z" fill="white"/>
<path d="M76.317 5.83853H77.7957C79.3917 5.83853 80.3943 5.20653 80.3943 3.5932C80.3943 1.96387 79.4557 1.34787 77.7143 1.34787H76.317V5.83853ZM77.8957 0.166533C80.2943 0.166533 81.741 1.11587 81.741 3.44387C81.741 5.3572 80.525 6.47053 79.1437 6.6212V6.68787C79.605 6.90387 80.0143 7.28653 80.541 8.18387L82.6623 11.8279H81.101L79.0117 8.1012C78.5677 7.33587 78.0597 6.98653 77.221 6.98653H76.317V11.8279H75.0023V0.166533H77.8957Z" fill="white"/>
<path d="M83.6802 0.166655H85.1095L87.7575 8.55065C87.9868 9.29865 88.2348 10.064 88.4468 10.812H88.5122C88.7268 10.064 88.9748 9.31599 89.2042 8.55065L91.8655 0.166655H93.2135L89.4495 11.828H87.4442L83.6802 0.166655Z" fill="white"/>
<path d="M95.9915 0.166133H97.3062V11.8275H95.9915V0.166133Z" fill="white"/>
<path d="M105.64 0.00067083C107.398 0.00067083 108.32 0.63267 108.696 0.96467L107.876 1.97934C107.382 1.56334 106.709 1.198 105.508 1.198C103.501 1.198 102.269 2.678 102.269 5.97267C102.269 9.13267 103.437 10.7793 105.64 10.7793C106.806 10.7793 107.48 10.4633 107.89 10.0647L108.614 11.0127C108.105 11.5113 107.102 11.994 105.458 11.994C102.285 11.994 100.921 9.682 100.921 6.08867C100.921 2.26334 102.565 0.00067083 105.64 0.00067083Z" fill="white"/>
<path d="M111.885 0.166133H113.2V11.8275H111.885V0.166133Z" fill="white"/>
<path d="M121.304 10.7962C123.211 10.7962 124.409 9.66415 124.409 6.05482C124.409 2.41215 123.177 1.19748 121.255 1.19748C119.38 1.19748 118.164 2.31215 118.164 5.93882C118.164 9.58148 119.396 10.7962 121.304 10.7962ZM121.221 11.9935C118.476 11.9935 116.816 10.3468 116.816 6.05482C116.816 1.74682 118.575 0.000152031 121.352 0.000152031C124.081 0.000152031 125.759 1.64682 125.759 5.93882C125.759 10.2468 123.983 11.9935 121.221 11.9935" fill="white"/>
<path d="M134.288 8.84961C134.288 6.20561 128.798 6.80294 128.798 3.12694C128.798 1.36427 130.294 0.000274101 132.366 0.000274101C133.663 0.000274101 134.683 0.433607 135.342 0.981607L134.535 2.01361C133.96 1.54694 133.254 1.21494 132.283 1.21494C130.934 1.21494 130.13 1.98027 130.13 3.04427C130.13 5.73894 135.62 5.17361 135.62 8.76694C135.62 10.5296 134.24 11.9936 131.774 11.9936C130.032 11.9936 128.83 11.3616 128.174 10.7629L128.946 9.69761C129.587 10.2309 130.508 10.7963 131.888 10.7963C133.45 10.7963 134.288 9.93094 134.288 8.84961" fill="white"/>
<path d="M146.15 0.166655V10.6453H151.098V11.828H144.834V0.166655H146.15Z" fill="white"/>
<path d="M157.36 10.7962C159.268 10.7962 160.467 9.66415 160.467 6.05482C160.467 2.41215 159.233 1.19748 157.311 1.19748C155.439 1.19748 154.221 2.31215 154.221 5.93882C154.221 9.58148 155.453 10.7962 157.36 10.7962ZM157.277 11.9935C154.533 11.9935 152.873 10.3468 152.873 6.05482C152.873 1.74682 154.631 0.000152031 157.409 0.000152031C160.139 0.000152031 161.815 1.64682 161.815 5.93882C161.815 10.2468 160.04 11.9935 157.277 11.9935" fill="white"/>
<path d="M172.089 7.93482V0.166819H173.402V7.76815C173.402 10.5802 171.792 11.9935 169.212 11.9935C166.614 11.9935 165.217 10.4802 165.217 7.96815V0.166819H166.532V7.76815C166.532 9.86415 167.633 10.7962 169.36 10.7962C171.036 10.7962 172.089 10.0148 172.089 7.93482Z" fill="white"/>
<path d="M178.563 1.74735C178.595 2.74468 178.611 3.67668 178.611 4.84068V11.8273H177.364V0.166014H179.203L183.083 7.55268C183.527 8.40068 184.004 9.31535 184.415 10.1807H184.531C184.498 9.11535 184.498 8.03535 184.498 7.05268V0.166014H185.731V11.8273H183.923L180.01 4.39135C179.55 3.52601 179.122 2.64468 178.696 1.74735H178.563Z" fill="white"/>
<path d="M197.318 0.998666L196.462 2.01333C195.969 1.53067 195.214 1.21467 194.063 1.21467C192.386 1.21467 190.545 2.112 190.545 5.92133C190.545 9.432 191.778 10.8293 194.029 10.8293C194.77 10.8293 195.591 10.68 196.053 10.3627V5.90533H197.366V10.9453C196.626 11.56 195.525 11.9933 193.749 11.9933C190.775 11.9933 189.197 10.0147 189.197 6.03866C189.197 1.83067 191.399 -5.56707e-07 194.145 -5.56707e-07C196.053 -5.56707e-07 196.939 0.631999 197.318 0.998666Z" fill="white"/>
<path d="M201.097 11.8275V0.166136H207.213V1.34747H202.413V5.32347H206.637V6.5048H202.413V10.6461H207.442V11.8275H201.097Z" fill="white"/>
<path d="M17.58 105.473C16.4067 105.544 15.1653 105.515 13.852 105.385C12.5373 105.257 11.2293 104.997 9.93067 104.616C8.63067 104.236 7.38267 103.705 6.17733 103.017C4.97467 102.333 3.91467 101.476 2.996 100.452C2.07733 99.4266 1.348 98.2186 0.809334 96.8346C0.270667 95.4519 0 93.8666 0 92.0799C0 90.2906 0.442668 88.6946 1.32933 87.2799C2.216 85.8692 3.372 84.6159 4.796 83.5146C6.21867 82.4132 7.82667 81.4466 9.612 80.6119C11.4 79.7759 13.1733 79.0639 14.9307 78.4759C16.6853 77.8879 18.3493 77.4159 19.916 77.0692C21.4827 76.7239 23.7827 76.3972 23.7827 76.3972C23.7973 76.3479 22.7347 75.3892 22.3227 74.7666C21.9667 74.2306 21.6067 73.5599 21.3067 72.7652C21.008 71.9719 20.86 71.0399 20.86 69.9732C20.86 68.7439 21.3 67.5079 22.18 66.2626C23.06 65.0159 24.2227 63.8812 25.6707 62.8466C27.12 61.8132 28.7867 60.9132 30.672 60.1399C32.556 59.3652 34.4973 58.8346 36.4933 58.5439C38.52 58.2506 40.1747 58.2132 41.4573 58.4492C42.74 58.6866 43.7453 59.0359 44.4747 59.5079C45.204 59.9812 45.7107 60.4892 45.996 61.0346C46.28 61.5812 46.424 61.9932 46.424 62.2692C46.424 62.5746 46.36 62.7986 46.232 62.9452C46.1067 63.0906 45.956 63.1946 45.7827 63.2506C45.608 63.3079 45.456 63.3119 45.3307 63.2639C45.204 63.2159 45.1653 63.0946 45.1413 63.0279C44.996 62.6372 44.1427 62.1426 43.3827 61.8266C42.7187 61.5479 41.8293 61.3452 40.7213 61.2146C39.6133 61.0839 38.188 61.1519 36.444 61.4012C34.8613 61.6292 33.476 62.1079 32.288 62.8386C31.1 63.5706 30.108 64.3719 29.3187 65.2492C28.5253 66.1266 27.932 66.9972 27.536 67.8639C27.14 68.7319 26.9413 69.4119 26.9413 69.9052C26.9413 71.0292 27.084 71.9412 27.3693 72.6372C27.6547 73.3319 28.012 73.8972 28.4413 74.3279C28.8693 74.7599 29.3267 75.0732 29.8173 75.2612C30.308 75.4519 30.7693 75.5972 31.196 75.6972C31.6227 75.7959 31.9787 75.8692 32.264 75.9159C32.548 75.9626 32.692 76.0412 32.692 76.1506C32.692 76.3426 32.6747 76.5466 32.644 76.7572C32.612 76.9652 32.4453 77.1812 32.1453 77.3946C31.844 77.6119 31.3293 77.8199 30.6013 78.0146C29.872 78.2106 28.8133 78.3852 27.42 78.5359C24.3853 78.8612 21.68 79.4572 19.312 80.3532C16.9413 81.2492 14.9507 82.3252 13.3387 83.5986C11.728 84.8692 10.4947 86.2906 9.64 87.8746C8.78667 89.4572 8.36133 91.1039 8.36133 92.8146C8.36133 94.2026 8.56 95.5226 8.95733 96.7759C9.35333 98.0279 9.94 99.1292 10.716 100.08C11.492 101.031 12.4413 101.773 13.564 102.293C14.688 102.812 15.9667 103.033 17.3907 102.945C18.4987 102.88 19.3707 102.773 20.004 102.632C20.6387 102.489 21.1147 102.331 21.4307 102.176C21.772 102.012 22.072 101.716 22.0493 101.637C22.0387 101.607 21.9413 101.46 21.9053 101.279C21.88 101.148 21.848 100.929 21.832 100.627C21.8173 100.328 21.8107 99.9186 21.8107 99.3999C21.8107 98.8799 21.928 98.4266 22.1627 98.0386C22.3973 97.6506 22.6587 97.2932 22.94 97.0092C23.2693 96.6786 24.064 96.1319 24.064 96.1319C24.076 96.1426 23.8467 96.8799 23.8787 97.3399C23.9093 97.8012 23.996 98.2412 24.112 98.6346C24.248 99.1039 24.5333 100.072 24.6413 100.109C24.788 100.161 25.6267 99.5439 26.0293 99.2052C26.38 98.9079 26.6987 98.5146 26.9867 98.0612C27.2733 97.6092 27.42 97.0826 27.42 96.4786C27.42 95.8772 27.288 95.4546 27.032 95.2212C26.776 94.9866 26.496 94.8146 26.2133 94.7439C25.8733 94.6612 25.0547 94.7732 25.0547 94.7732C25.0373 94.7492 25.3587 94.2492 25.5813 94.0226C25.7613 93.8399 26.028 93.6559 26.3467 93.4759C26.664 93.2932 27.0627 93.1786 27.5427 93.1319C28.4653 93.0386 29.2613 93.2439 29.9307 93.7466C30.5987 94.2546 30.9347 95.1612 30.9347 96.4812C30.9347 97.0572 30.7813 97.6399 30.4813 98.2212C30.18 98.8039 29.792 99.3532 29.3187 99.8666C28.8427 100.385 28.3213 100.877 27.752 101.343C27.1813 101.812 26.1067 102.447 26.0867 102.567C26.0253 102.945 28.0347 104.711 29.1747 105.544C30.3173 106.377 31.5027 107.033 32.7373 107.515C33.9733 107.997 35.204 108.291 36.4227 108.391C37.6427 108.489 38.8253 108.377 39.9147 108.028C40.4467 107.856 40.8867 107.653 41.22 107.443C41.5533 107.228 41.8147 107.025 42.004 106.833C42.2267 106.612 42.4973 106.271 42.48 106.189C42.4547 106.075 42.1533 105.747 42.1693 105.44C42.1853 105.132 42.2667 104.891 42.408 104.705C42.5507 104.517 42.7187 104.447 42.908 104.489C43.0987 104.531 43.26 104.809 43.3827 105.312C43.5107 105.843 43.4933 106.403 43.3347 106.979C43.176 107.555 42.86 108.129 42.3853 108.708C41.9093 109.285 41.2693 109.825 40.4613 110.333C39.652 110.84 38.6253 111.283 37.3947 111.661C36.068 112.067 34.7507 112.143 33.4507 111.875C32.152 111.607 30.9013 111.113 29.6987 110.395C28.4947 109.679 27.3627 108.768 26.3 107.671C25.2387 106.572 23.9 104.233 23.4733 104.113C23.3027 104.064 22.452 104.544 21.86 104.731C21.3267 104.9 20.6947 105.061 19.9813 105.195C19.2693 105.328 18.4667 105.419 17.58 105.473Z" fill="white"/>
<path d="M53.4993 96.304C52.3739 96.4987 51.4233 96.3147 50.6539 95.752C49.8846 95.1893 49.3233 94.46 48.9699 93.5693C48.6166 92.6813 48.4913 91.7107 48.5953 90.6533C48.6993 89.5987 49.6886 87.82 49.6886 87.82C49.6886 87.82 46.8673 91.528 45.5033 93.088C44.9179 93.7547 44.3139 94.416 43.6899 95.0547C43.0646 95.692 42.4379 96.2653 41.8126 96.7707C41.1886 97.2773 40.5819 97.7 40.0006 98.0333C39.4153 98.3667 38.8979 98.564 38.4406 98.624C37.7739 98.7133 37.1179 98.684 36.4713 98.544C35.8259 98.4027 35.2513 98.1213 34.7513 97.7C34.2499 97.28 33.8699 96.7227 33.5993 96.0307C33.3286 95.3373 33.2406 94.4547 33.3179 93.4027C33.3619 92.7853 33.6686 91.9133 34.2513 90.7907C34.8339 89.6707 35.5553 88.4213 36.4099 87.0387C37.2633 85.6587 38.1819 84.1947 39.1606 82.64C40.1379 81.0853 41.0539 79.572 41.9099 78.0987C42.7606 76.624 43.4819 75.2493 44.0659 73.9733C44.6473 72.7 44.9699 71.6027 45.0646 70.7307C45.0993 70.4 45.4286 70.216 46.0313 70.188C46.6353 70.16 47.2846 70.304 47.9713 70.6227C48.6593 70.9427 49.2726 71.4453 49.8126 72.1333C50.3553 72.8213 50.6033 73.7427 50.5006 74.828C50.4313 75.56 50.0006 76.64 49.2499 78.0253C48.5006 79.4133 47.6073 80.9213 46.5659 82.5467C45.5246 84.1707 44.4513 85.8147 43.3473 87.4707C42.2433 89.1293 41.2953 90.6213 40.5033 91.9493C39.7113 93.276 39.1793 94.3373 38.9086 95.1347C38.6379 95.932 38.8593 96.2827 39.5673 96.1867C39.8153 96.1533 40.5019 95.5987 41.6273 94.5093C42.7513 93.424 44.0833 92.0173 45.6259 90.2827C47.1673 88.552 48.8033 86.616 50.5326 84.476C52.2606 82.3347 53.8646 80.2027 55.3459 78.08C56.8219 75.9573 58.0619 73.976 59.0619 72.148C60.0606 70.32 60.5806 68.8373 60.6846 67.7827C60.7179 67.4507 61.0286 67.2907 61.5913 67.3213C62.1539 67.352 62.7699 67.544 63.4366 67.8973C64.1019 68.252 64.6846 68.808 65.1846 69.564C65.6859 70.32 65.8833 71.2667 65.8113 72.3773C65.7633 73.1147 65.3753 74.1973 64.6259 75.6013C63.8753 77.0067 62.9993 78.528 61.9993 80.1613C60.9993 81.7907 59.9566 83.4427 58.8726 85.1133C57.7899 86.788 56.8526 88.2827 56.0606 89.5987C55.2686 90.9133 54.7406 91.9653 54.4699 92.7627C54.1979 93.5613 54.3739 93.9027 54.9993 93.7907C55.3313 93.7307 55.8646 93.3893 56.5939 92.7627C57.3233 92.1347 58.1886 91.296 59.1886 90.244C60.1886 89.1947 61.2806 87.984 62.4686 86.6093C63.6553 85.236 64.8606 83.7853 66.0899 82.2627C67.3179 80.7387 68.5086 79.1947 69.6539 77.6373C70.8006 76.0827 71.8459 74.5667 72.7459 73.1107C72.9539 72.772 73.2139 72.5253 73.5273 72.3787C73.8393 72.2347 74.1006 72.1933 74.3086 72.2547C74.5179 72.3173 74.6299 72.4853 74.6499 72.7573C74.6713 73.028 74.5059 73.4267 74.1833 73.9427C73.9713 74.28 73.4433 75.0627 72.5886 76.268C71.7353 77.4733 70.7033 78.8867 69.4953 80.512C68.2873 82.1347 66.9553 83.8347 65.4966 85.6067C64.0379 87.3773 62.5819 89.028 61.1246 90.556C59.6646 92.088 58.2686 93.3867 56.9366 94.4547C55.6019 95.5227 54.4566 96.1347 53.4993 96.304Z" fill="white"/>
<path d="M75.1829 65.692C75.1829 66.2093 75.2336 66.6293 75.3376 66.956C75.4416 67.2813 75.5936 67.556 75.7456 67.7733C75.9149 68.0133 76.2696 68.4213 76.3096 68.4147C76.7376 68.3307 78.1203 65.1067 78.9949 63.5653C79.8696 62.024 80.5896 60.6613 81.1523 59.4867C81.7123 58.312 82.0789 57.3987 82.2456 56.7467C82.4109 56.0947 82.2189 55.836 81.6789 55.972C81.1363 56.1067 80.5016 56.5627 79.7736 57.3333C79.0443 58.1053 78.3376 58.996 77.6509 60.0107C76.9643 61.0253 76.3776 62.0587 75.9003 63.1133C75.4216 64.168 75.1829 65.028 75.1829 65.692ZM97.6136 98.2307C97.9029 97.7107 98.2176 97.52 98.5522 97.6587C98.7162 97.728 98.9242 97.9053 98.9269 98.0093C98.9376 98.536 97.9762 99.6653 97.2402 100.449C96.6149 101.113 95.7709 101.793 94.7096 102.447C93.6469 103.099 92.3042 103.621 90.6789 104.015C89.0536 104.405 87.3323 104.481 85.5216 104.239C83.7096 103.997 82.0443 103.377 80.5243 102.392C79.0043 101.411 77.7536 100.015 76.7749 98.2227C75.7976 96.4293 75.3096 94.1867 75.3096 91.4947C75.3096 89.5413 75.6096 87.512 76.2136 85.4C76.8189 83.288 77.5576 81.228 78.4336 79.2133C79.3083 77.2 80.2349 75.3147 81.2136 73.5627C82.1922 71.8093 83.8056 69.152 83.8056 69.152C83.7869 69.1347 81.6816 70.4173 80.1829 71.148C78.6829 71.88 77.0376 72.4547 75.2469 72.8693C74.7869 72.9747 74.2829 73.0173 73.7429 72.9933C73.2016 72.9693 72.6843 72.764 72.1843 72.3813C71.6843 71.9973 71.2669 71.3813 70.9336 70.536C70.6003 69.692 70.4323 68.516 70.4323 67.0067C70.4323 64.8347 70.8389 62.7573 71.6523 60.7653C72.4629 58.7747 73.4736 56.9813 74.6816 55.3853C75.8896 53.7893 77.1709 52.452 78.5243 51.3787C79.8776 50.3053 81.0989 49.628 82.1816 49.352C83.3483 49.056 84.3469 49.1133 85.1789 49.528C86.0123 49.9413 86.4282 50.7253 86.4282 51.8733C86.4282 52.428 86.3056 53.1013 86.0549 53.888C85.8056 54.6747 85.4696 55.5307 85.0536 56.4507C84.6376 57.3733 84.1682 58.316 83.6482 59.28C83.1269 60.244 82.5989 61.1827 82.0563 62.092C80.7656 64.2627 77.7443 68.9067 77.7443 68.9067C77.7683 68.928 80.7243 66.816 82.0563 65.8667C83.1736 65.072 84.2642 64.3013 85.3056 63.5573C86.3469 62.8133 87.0349 62.2987 87.3682 62.032C87.7776 61.7027 88.2002 61.3653 88.6162 61.0147C89.0322 60.6667 89.5336 60.6013 90.0549 60.8387C90.3016 60.9507 90.7416 61.1787 91.3669 61.4973C91.9909 61.8187 92.5536 62.228 93.0549 62.728C93.5549 63.228 93.8776 63.824 94.0229 64.5093C94.1683 65.196 93.8723 65.9907 93.1803 66.8787C92.4696 67.792 91.4829 69.2173 90.2109 71.1013C88.9402 72.9853 87.6896 75.1093 86.4602 77.4707C85.2309 79.832 84.1709 82.312 83.2763 84.9133C82.3789 87.5173 81.9309 90.0147 81.9309 92.4187C81.9309 94.8253 82.2656 96.728 82.9309 98.124C83.5962 99.5227 84.4082 100.556 85.3682 101.22C86.3256 101.885 87.3682 102.26 88.4909 102.343C89.6149 102.427 90.6349 102.356 91.5509 102.132C93.4256 101.676 94.8216 101.059 95.7389 100.291C96.6549 99.5227 97.2776 98.832 97.6136 98.2307" fill="white"/>
<path d="M114.738 75.2408C114.276 75.3675 113.851 75.4088 113.458 75.3675C113.062 75.3261 112.57 75.1061 112.488 75.1288C112.338 75.1701 112.008 75.8555 111.8 76.0461C111.734 76.1088 111.636 76.2235 111.551 76.3408C111.482 76.4368 111.375 76.5595 111.268 76.6995C111.164 76.8408 111.05 77.0181 110.926 77.1861C109.574 78.9995 107.802 80.7155 106.052 82.2675C104.303 83.8195 101.956 84.7941 100.802 85.6141C100.762 85.6421 100.696 85.6968 100.614 85.7208C100.447 85.7648 100.343 85.8061 100.302 85.8555C100.051 85.9208 99.9268 85.9528 99.6762 86.0181C99.0508 86.1795 98.3508 86.2675 97.5815 86.2808C96.8108 86.2941 96.0842 86.1341 95.3962 85.8088C94.7095 85.4808 94.1348 84.9181 93.6775 84.1221C93.2188 83.3275 92.9908 82.1861 92.9908 80.6995C92.9908 79.0275 93.2922 77.2781 93.8962 75.4488C94.5002 73.6195 95.3122 71.8101 96.3322 70.0141C97.3522 68.2181 98.5202 66.4728 99.8322 64.7768C101.146 63.0808 102.499 61.5461 103.895 60.1715C105.291 58.7968 106.676 57.6355 108.051 56.6888C109.427 55.7421 110.676 55.1061 111.8 54.7875C113.551 54.2915 115.05 54.3048 116.299 54.8288C117.55 55.3541 118.57 56.1061 119.363 57.0835C119.488 57.2368 119.36 57.5181 118.986 57.9261C118.611 58.3328 117.715 58.7395 116.299 59.1408C114.592 59.6275 112.882 60.6075 111.175 62.0781C109.467 63.5501 107.884 65.2248 106.427 67.1021C104.97 68.9795 103.688 70.9248 102.584 72.9381C101.48 74.9515 100.636 76.7701 100.052 78.3955C99.4695 80.0248 99.2082 81.3221 99.2695 82.2941C99.3322 83.2648 99.8228 83.6315 100.74 83.3901C101.656 83.1501 102.718 82.5355 103.928 81.5408C105.135 80.5488 106.279 79.4501 107.364 78.3195C108.63 76.9995 111.162 74.8048 111.238 73.9541C111.248 73.8395 111.018 73.4181 110.927 73.0821C110.855 72.8128 110.779 72.4675 110.739 72.0661C110.699 71.6675 110.676 71.2048 110.676 70.6781C110.676 69.5541 110.998 68.5088 111.644 67.5435C112.29 66.5768 112.998 65.8635 113.768 65.4035C114.54 64.9421 115.248 64.8181 115.894 65.0301C116.54 65.2435 116.863 65.9328 116.863 67.0981C116.863 67.6248 116.591 68.3941 116.048 69.4101C115.506 70.4261 113.655 72.7688 113.736 73.1515C113.742 73.1781 113.999 73.2381 114.27 73.2581C114.539 73.2755 114.759 73.2635 114.926 73.2155C115.672 73.0088 116.424 72.5461 117.174 71.8301C117.924 71.1141 118.736 70.1528 119.61 68.9475C120.486 67.7421 121.431 66.3088 122.452 64.6435C123.475 62.9781 124.634 61.0928 125.859 59.0048C126.07 58.6475 126.327 58.3701 126.642 58.1848C126.952 58.0021 127.214 57.9355 127.423 57.9901C127.63 58.0421 127.744 58.2181 127.766 58.5141C127.786 58.8115 127.62 59.2355 127.298 59.7808C127.087 60.1368 126.766 60.7368 126.328 61.5595C125.891 62.3808 125.351 63.3195 124.706 64.3715C124.056 65.4235 123.336 66.5395 122.544 67.7248C121.754 68.9088 120.932 70.0181 120.08 71.0461C119.226 72.0755 118.34 72.9728 117.426 73.7328C116.508 74.4968 115.61 74.9981 114.738 75.2408Z" fill="white"/>
<path d="M126.672 75.9238C127.296 75.7491 128.232 74.9798 129.482 73.6064C130.732 72.2358 132.086 70.5771 133.544 68.6304C135.003 66.6838 136.472 64.5984 137.951 62.3744C139.428 60.1504 140.69 58.1184 141.731 56.2798C142.771 54.4424 143.491 52.9518 143.887 51.8104C144.283 50.6691 144.146 50.1958 143.479 50.3878C142.979 50.5331 142.2 51.1104 141.138 52.1211C140.076 53.1318 138.908 54.3891 137.638 55.8944C136.367 57.3984 135.054 59.0731 133.7 60.9184C132.347 62.7651 131.108 64.5958 129.983 66.4078C128.859 68.2224 127.94 69.9344 127.232 71.5491C126.524 73.1651 126.17 74.5198 126.17 75.6118C126.17 75.6864 126.191 75.7571 126.232 75.8224C126.315 75.9504 126.463 75.9838 126.672 75.9238ZM142.167 71.4024C142.626 71.2731 143.532 70.4878 144.886 69.0424C146.239 67.5984 147.78 65.8038 149.51 63.6598C151.238 61.5171 153.01 59.1878 154.82 56.6731C156.634 54.1584 158.206 51.6624 159.602 49.4518C159.836 49.0798 160.122 48.7998 160.414 48.6224C160.704 48.4464 160.967 48.3811 161.195 48.4318C161.422 48.4811 161.548 48.6598 161.57 48.9598C161.59 49.2598 161.423 49.6931 161.1 50.2424C160.89 50.6011 160.362 51.4331 159.508 52.7238C158.652 54.0144 157.611 55.5304 156.383 57.2678C155.155 59.0064 153.8 60.8558 152.322 62.8144C150.843 64.7744 149.375 66.6064 147.918 68.3091C146.459 70.0118 145.062 71.4678 143.73 72.6758C142.396 73.8851 141.251 74.6238 140.294 74.8918C139.543 75.1011 138.823 75.1784 138.138 75.1238C137.451 75.0691 136.846 74.8304 136.324 74.4091C135.804 73.9864 135.378 73.3478 135.044 72.4958C134.711 71.6451 134.547 69.1704 134.547 69.1704C134.455 69.1424 132.192 72.4824 131.107 73.8304C130.162 75.0078 129.16 76.1171 128.142 77.1584C127.119 78.1998 126.276 78.8091 125.61 78.9944C124.943 79.1811 124.22 79.2598 123.452 79.2291C122.682 79.1971 121.963 78.9918 121.296 78.6118C120.63 78.2304 120.08 77.6611 119.643 76.8971C119.203 76.1371 118.984 75.1144 118.984 73.8344C118.984 72.5571 119.362 71.0424 120.111 69.2878C120.86 67.5344 121.851 65.7011 123.079 63.7864C124.307 61.8744 125.691 59.9691 127.232 58.0718C128.772 56.1758 130.327 54.4304 131.89 52.8424C133.452 51.2531 134.939 49.9091 136.356 48.8131C137.772 47.7171 138.98 47.0238 139.98 46.7318C141.063 46.4158 141.979 46.3278 142.731 46.4704C143.479 46.6131 144.103 46.8238 144.542 47.1131C145.038 47.4398 145.73 48.4238 145.73 48.4238C146.392 48.4238 150.53 39.7544 152.54 36.0398C153.399 34.4544 154.259 32.8571 155.071 31.2651C155.882 29.6731 156.611 28.1984 157.258 26.8424C157.904 25.4878 158.424 24.3118 158.82 23.3144C159.216 22.3198 159.414 21.6104 159.414 21.1878C159.414 20.7291 159.696 20.3398 160.258 20.0238C160.819 19.7064 161.423 19.6344 162.07 19.8118C162.715 19.9878 163.319 20.5038 163.882 21.3584C164.444 22.2131 164.724 23.5624 164.724 25.4051C164.724 26.2504 164.339 27.5691 163.57 29.3611C162.799 31.1531 161.799 33.2291 160.571 35.5904C159.34 37.9518 157.956 40.5011 156.416 43.2344C154.874 45.9691 153.331 48.6918 151.791 51.3998C150.25 54.1104 148.78 56.6998 147.386 59.1704C145.988 61.6438 144.812 63.8131 143.855 65.6798C142.896 67.5478 142.24 69.0078 141.887 70.0558C141.534 71.1064 141.626 71.5531 142.167 71.4024Z" fill="white"/>
<path d="M174.409 36.7949C175.325 36.5483 176.16 36.6429 176.909 37.0803C177.66 37.5176 178.253 38.0669 178.691 38.7243C179.128 39.3829 179.396 40.0176 179.5 40.6283C179.604 41.2376 179.493 41.5856 179.16 41.6723C177.951 41.9869 176.524 42.8456 174.88 44.2483C173.232 45.6523 171.567 47.3149 169.88 49.2349C168.193 51.1549 166.568 53.1763 165.005 55.2936C163.443 57.4123 162.152 59.3429 161.131 61.0816C160.109 62.8216 159.435 64.2149 159.101 65.2669C158.768 66.3176 158.976 66.7389 159.724 66.5363C159.976 66.4669 160.507 65.9976 161.32 65.1256C162.131 64.2536 163.068 63.1776 164.131 61.8923C165.193 60.6069 166.295 59.2176 167.44 57.7176C168.585 56.2189 169.631 54.8256 170.567 53.5363C171.504 52.2483 172.255 51.1429 172.817 50.2229C173.379 49.3043 173.621 48.7363 173.533 48.5883C173.403 48.3723 173.504 48.1923 173.941 48.0763C174.379 47.9616 174.897 47.9763 175.501 48.1269C176.104 48.2763 176.671 48.6123 177.191 49.1323C177.712 49.6536 177.975 50.4349 177.975 51.4776C177.975 52.5203 177.68 53.7256 177.097 55.0909C176.513 56.4563 175.909 57.7296 175.285 58.9123C174.659 60.0963 174.181 61.0683 173.848 61.8283C173.513 62.5896 173.6 62.9056 174.1 62.7763C174.6 62.6469 175.492 61.8763 176.784 60.4656C178.076 59.0563 179.535 57.3043 181.159 55.2149C182.783 53.1256 184.473 50.8496 186.221 48.3843C187.972 45.9203 189.512 43.4629 190.907 41.2789C191.143 40.9123 191.428 40.6403 191.719 40.4723C192.011 40.3069 192.271 40.2536 192.5 40.3149C192.728 40.3776 192.855 40.5616 192.876 40.8669C192.896 41.1723 192.744 41.6189 192.407 42.1443C192.169 42.5123 191.625 43.3309 190.813 44.5936C190.001 45.8549 189.011 47.3336 187.845 49.0323C186.677 50.7309 185.388 52.5389 183.972 54.4563C182.555 56.3749 181.137 58.1656 179.721 59.8323C178.305 61.4989 176.951 62.9136 175.659 64.0749C174.368 65.2376 173.245 65.9429 172.288 66.1909C171.661 66.3523 171.036 66.3243 170.411 66.1016C169.785 65.8803 169.244 65.5589 168.785 65.1416C168.329 64.7243 167.949 64.2656 167.66 63.7683C167.368 63.2696 167.224 62.8456 167.224 62.5003C167.224 62.1549 167.272 61.7669 167.379 61.3349C167.481 60.9043 167.596 60.4923 167.723 60.1203C167.881 59.6576 168.288 58.7016 168.288 58.7016C168.273 58.6923 165.369 62.4789 164.039 64.1029C162.915 65.4776 161.787 66.7616 160.663 67.9469C159.539 69.1323 158.683 69.8043 158.101 69.9629C157.516 70.1229 156.892 70.1309 156.227 69.9883C155.56 69.8469 154.924 69.5696 154.321 69.1629C153.716 68.7549 153.216 68.1989 152.821 67.4869C152.425 66.7763 152.227 65.9043 152.227 64.8749C152.227 63.7683 152.611 62.3536 153.383 60.6283C154.155 58.9056 155.163 57.0549 156.413 55.0789C157.663 53.1029 159.091 51.0976 160.695 49.0603C162.297 47.0229 163.923 45.1443 165.568 43.4216C167.215 41.6989 168.807 40.2416 170.348 39.0509C171.888 37.8603 173.243 37.1083 174.409 36.7949Z" fill="white"/>
<path d="M202.718 58.9876C201.51 59.2409 200.499 58.7649 199.686 57.5569C198.874 56.3502 198.467 54.6382 198.467 52.4196C198.467 51.7956 198.602 51.0556 198.874 50.1956C199.145 49.3382 199.499 48.4222 199.935 47.4489C200.373 46.4756 200.863 45.4609 201.406 44.4062C201.947 43.3529 202.506 42.3076 203.091 41.2889C204.451 38.9289 207.715 33.8022 207.715 33.8022C207.701 33.7809 206.654 34.5142 205.53 35.7302C204.406 36.9476 203.101 38.4582 201.623 40.2649C200.145 42.0729 198.593 44.0569 196.969 46.2156C195.343 48.3756 193.854 50.4382 192.501 52.4049C191.146 54.3729 190.022 56.0942 189.126 57.5702C188.231 59.0449 187.782 60.0222 187.782 60.4956C187.782 61.6036 187.565 62.2489 187.127 62.4316C186.689 62.6129 186.198 62.4929 185.657 62.0716C185.118 61.6516 184.63 60.9756 184.191 60.0476C183.754 59.1196 183.531 58.0756 183.531 56.9156C183.531 56.1422 183.835 55.0982 184.439 53.7876C185.043 52.4782 185.803 51.0329 186.719 49.4516C187.635 47.8716 188.635 46.2129 189.719 44.4756C190.802 42.7396 191.802 41.0649 192.719 39.4476C193.635 37.8316 194.395 36.3089 194.999 34.8836C195.603 33.4582 195.907 32.2582 195.907 31.2849C195.907 30.7796 196.145 30.4796 196.625 30.3862C197.102 30.2942 197.625 30.4356 198.187 30.8116C198.749 31.1876 199.27 31.8289 199.749 32.7316C200.227 33.6356 200.469 34.8116 200.469 36.2529C200.469 36.9942 200.353 37.6729 200.125 38.2889C199.894 38.9049 199.663 39.4822 199.406 39.9382C199.103 40.4716 198.343 41.5209 198.343 41.5209C198.345 41.5222 202.445 36.7769 204.279 34.8276C205.066 33.9929 205.851 33.1609 206.622 32.3316C207.393 31.5049 208.122 30.7662 208.809 30.1142C209.497 29.4622 210.113 28.9236 210.654 28.4996C211.193 28.0769 211.589 27.8396 211.841 27.7889C212.381 27.6796 212.873 27.7502 213.309 27.9969C213.746 28.2422 214.111 28.6236 214.402 29.1329C214.691 29.6436 214.922 30.2382 215.089 30.9116C215.255 31.5862 215.339 32.2756 215.339 32.9822C215.339 33.4529 214.985 34.3556 214.277 35.6862C213.569 37.0196 212.693 38.5489 211.653 40.2809C210.611 42.0156 209.518 43.8089 208.371 45.6636C207.226 47.5182 206.218 49.2116 205.342 50.7396C204.467 52.2689 203.83 53.5156 203.435 54.4769C203.039 55.4369 203.091 55.8649 203.591 55.7609C204.507 55.5689 205.727 54.7502 207.247 53.3089C208.767 51.8689 210.393 50.1102 212.122 48.0342C213.85 45.9596 215.59 43.7009 217.341 41.2622C219.089 38.8222 220.69 36.4956 222.026 34.3009C222.235 33.9569 222.494 33.6996 222.806 33.5462C223.119 33.3969 223.378 33.3622 223.587 33.4449C223.795 33.5262 223.911 33.7249 223.931 34.0369C223.953 34.3489 223.786 34.7702 223.465 35.2956C223.253 35.6409 222.735 36.4422 221.902 37.6862C221.067 38.9302 220.058 40.3822 218.869 42.0476C217.683 43.7116 216.369 45.4902 214.933 47.3836C213.497 49.2782 212.037 51.0462 210.559 52.6862C209.079 54.3262 207.663 55.7329 206.309 56.9022C204.957 58.0729 203.758 58.7689 202.718 58.9876Z" fill="white"/>
<path d="M225.713 54.7832C224.129 55.0259 222.806 54.9832 221.743 54.6459C220.682 54.3099 219.829 53.7472 219.183 52.9539C218.537 52.1619 218.069 51.2032 217.777 50.0766C217.485 48.9499 217.341 47.7019 217.341 46.3272C217.341 45.4246 217.61 44.2552 218.151 42.8232C218.693 41.3912 219.402 39.8712 220.277 38.2632C221.151 36.6552 222.139 35.0286 223.243 33.3859C224.347 31.7419 225.473 30.2459 226.619 28.8979C227.765 27.5512 228.879 26.4286 229.963 25.5326C231.046 24.6352 232.003 24.1272 232.838 24.0059C233.295 23.9406 233.681 24.0046 233.993 24.1966C234.305 24.3899 234.582 24.6139 234.774 24.8592C234.985 25.1286 235.274 25.8566 235.274 25.8566C235.275 25.8566 235.418 25.5206 235.71 25.2046C236.002 24.8899 236.315 24.5512 236.649 24.1899C236.982 23.8286 237.295 23.4619 237.585 23.0872C237.877 22.7126 238.023 22.3659 238.023 22.0486C238.023 21.7712 238.158 21.6552 238.429 21.6992C238.698 21.7432 239.014 21.9619 239.366 22.3539C239.721 22.7459 240.031 23.3219 240.302 24.0819C240.573 24.8406 240.71 25.8179 240.71 27.0072C240.71 28.6726 240.493 29.9272 240.054 30.7726C239.617 31.6179 239.126 32.3606 238.585 33.0006C238.045 33.6406 237.554 34.3446 237.117 35.1139C236.679 35.8806 236.75 38.1899 236.459 38.5206C236.205 38.8099 234.439 38.4392 233.774 37.8379C233.107 37.2379 232.611 36.5366 232.273 35.7646C231.869 34.8406 231.462 32.5632 231.462 32.5632C231.297 32.5112 228.841 35.8166 227.777 37.5566C226.854 39.0619 226.025 40.7646 225.275 42.6179C224.525 44.4726 224.151 46.3432 224.151 48.2339C224.151 49.6139 224.506 50.5192 225.213 50.9592C225.919 51.3992 226.691 51.5592 227.526 51.4339C227.858 51.3846 228.419 51.0352 229.211 50.3899C230.002 49.7432 230.93 48.8979 231.993 47.8632C233.055 46.8286 234.222 45.6352 235.493 44.2846C236.763 42.9352 238.033 41.5126 239.303 40.0152C240.574 38.5206 241.802 37.0046 242.989 35.4686C244.177 33.9326 245.218 32.4046 246.147 31.0619C246.382 30.7219 246.666 30.4846 246.957 30.3579C247.247 30.2312 247.511 30.2166 247.741 30.3152C247.969 30.4126 248.094 30.6206 248.115 30.9339C248.135 31.2499 247.967 31.6659 247.646 32.1712C247.435 32.5006 246.875 33.2779 245.959 34.4779C245.043 35.6806 243.927 37.0846 242.617 38.6926C241.303 40.3006 239.866 42.0179 238.303 43.8486C236.741 45.6779 235.181 47.3792 233.617 48.9486C232.055 50.5179 230.586 51.8472 229.211 52.9326C227.837 54.0192 226.67 54.6366 225.713 54.7832Z" fill="white"/>
<path d="M258.896 28.9616C258.647 28.9749 258.29 29.1762 257.831 29.5602C257.372 29.9442 256.882 30.4549 256.362 31.0842C255.84 31.7136 255.279 32.4282 254.676 33.2242C254.071 34.0242 253.462 34.8256 252.892 35.6216C251.512 37.5589 248.458 42.2416 248.458 42.2416C248.498 42.2816 252.416 39.4082 253.958 37.8496C255.498 36.2922 256.728 34.8522 257.644 33.5242C258.559 32.1962 259.123 31.0989 259.331 30.2296C259.539 29.3602 259.395 28.9349 258.896 28.9616ZM269.267 30.2016C269.5 29.8802 269.786 29.6642 270.076 29.5616C270.368 29.4616 270.632 29.4682 270.863 29.5896C271.091 29.7096 271.214 29.9309 271.235 30.2509C271.256 30.5722 271.09 30.9762 270.768 31.4562C270.558 31.7709 269.995 32.4922 269.079 33.6056C268.163 34.7162 267.015 36.0162 265.642 37.5082C264.266 39.0016 262.747 40.5842 261.08 42.2669C259.415 43.9509 257.716 45.5069 255.988 46.9389C254.259 48.3736 252.571 49.5896 250.924 50.5856C249.278 51.5816 247.748 52.1882 246.459 52.2576C245.375 52.3149 244.331 52.0549 243.458 51.5842C242.707 51.1829 242.023 50.5269 241.398 49.6229C240.772 48.7176 240.46 47.3362 240.46 45.4722C240.46 43.6882 240.835 41.8522 241.586 39.9642C242.335 38.0762 243.304 36.2442 244.49 34.4749C245.678 32.7056 246.999 31.0362 248.458 29.4722C249.918 27.9069 251.34 26.5336 252.736 25.3496C254.132 24.1656 255.435 23.2389 256.646 22.5629C257.852 21.8869 258.811 21.5349 259.519 21.4976C259.934 21.4762 260.396 21.5429 260.895 21.6989C261.395 21.8549 261.86 22.1642 262.298 22.6269C262.735 23.0882 263.111 23.7549 263.424 24.6256C263.736 25.4936 263.892 26.6496 263.892 28.0909C263.892 29.0509 263.56 30.1136 262.895 31.2789C262.228 32.4429 261.37 33.6162 260.33 34.8002C259.288 35.9869 258.136 37.1522 256.866 38.3002C255.594 39.4482 254.342 40.4842 253.114 41.4056C251.884 42.3269 250.759 43.0802 249.739 43.6589C248.718 44.2389 247.612 44.4509 247.396 44.6016C247.035 44.8522 246.756 46.0989 246.646 46.6962C246.552 47.2069 246.614 47.6736 246.802 48.0536C246.988 48.4349 247.498 48.5882 248.331 48.5189C249.372 48.4322 250.791 47.7922 252.583 46.6136C254.372 45.4349 256.276 43.9642 258.299 42.2082C260.318 40.4522 262.307 38.5162 264.266 36.3989C266.223 34.2816 267.875 32.1202 269.267 30.2016" fill="white"/>
<path d="M58.6203 34.3925L61.0283 29.0432L63.9697 34.3925H69.051L65.039 38.9392L66.6443 43.7539L61.8297 41.8805L57.0163 45.3579V39.4739L52.7363 34.9272L58.6203 34.3925Z" fill="white"/>
<path d="M125.826 25.4837L129.495 17.3277L133.981 25.4837H141.729L135.613 32.4157L138.059 39.7544L130.719 36.901L123.379 42.201V33.2304L116.855 26.2984L125.826 25.4837Z" fill="white"/>
<path d="M99.3378 42.6907L101.624 37.6093L104.42 42.6907H109.246L105.434 47.0093L106.96 51.5813L102.386 49.8027L97.8138 53.1067V47.5173L93.7498 43.1987L99.3378 42.6907Z" fill="white"/>
</svg>
