<svg width="339" height="141" viewBox="0 0 339 141" fill="none" xmlns="http://www.w3.org/2000/svg">
<path d="M75.8397 12.0293C75.8397 8.73334 68.9971 9.47867 68.9971 4.89734C68.9971 2.7 70.8611 1 73.4424 1C75.0611 1 76.3317 1.53867 77.1504 2.224L76.1464 3.508C75.4304 2.928 74.5491 2.51334 73.3397 2.51334C71.6597 2.51334 70.6557 3.46667 70.6557 4.79334C70.6557 8.152 77.4997 7.44667 77.4997 11.9253C77.4997 14.1227 75.7784 15.9467 72.7051 15.9467C70.5344 15.9467 69.0371 15.16 68.2184 14.4133L69.1811 13.0867C69.9797 13.7507 71.1277 14.4547 72.8477 14.4547C74.7944 14.4547 75.8397 13.3773 75.8397 12.0293Z" fill="#231F20"/>
<path d="M75.8397 12.0293C75.8397 8.73334 68.9971 9.47867 68.9971 4.89734C68.9971 2.7 70.8611 1 73.4424 1C75.0611 1 76.3317 1.53867 77.1504 2.224L76.1464 3.508C75.4304 2.928 74.5491 2.51334 73.3397 2.51334C71.6597 2.51334 70.6557 3.46667 70.6557 4.79334C70.6557 8.152 77.4997 7.44667 77.4997 11.9253C77.4997 14.1227 75.7784 15.9467 72.7051 15.9467C70.5344 15.9467 69.0371 15.16 68.2184 14.4133L69.1811 13.0867C69.9797 13.7507 71.1277 14.4547 72.8477 14.4547C74.7944 14.4547 75.8397 13.3773 75.8397 12.0293Z" stroke="#231F20" stroke-width="0.333333" stroke-miterlimit="10"/>
<path d="M81.5547 15.7403V1.20831H89.176V2.67898H83.1934V7.63364H88.4587V9.10564H83.1934V14.2683H89.4627V15.7403H81.5547Z" fill="#231F20"/>
<path d="M81.5547 15.7403V1.20831H89.176V2.67898H83.1934V7.63364H88.4587V9.10564H83.1934V14.2683H89.4627V15.7403H81.5547Z" stroke="#231F20" stroke-width="0.333333" stroke-miterlimit="10"/>
<path d="M95.1158 8.2768H96.9598C98.9465 8.2768 100.197 7.4888 100.197 5.47813C100.197 3.44613 99.0292 2.67947 96.8572 2.67947H95.1158V8.2768ZM97.0825 1.20747C100.073 1.20747 101.876 2.3888 101.876 5.29147C101.876 7.67547 100.361 9.0648 98.6398 9.25147V9.33413C99.2132 9.60347 99.7252 10.0808 100.381 11.1995L103.024 15.7408H101.077L98.4758 11.0968C97.9225 10.1421 97.2865 9.70747 96.2425 9.70747H95.1158V15.7408H93.4772V1.20747H97.0825Z" fill="#231F20"/>
<path d="M95.1158 8.2768H96.9598C98.9465 8.2768 100.197 7.4888 100.197 5.47813C100.197 3.44613 99.0292 2.67947 96.8572 2.67947H95.1158V8.2768ZM97.0825 1.20747C100.073 1.20747 101.876 2.3888 101.876 5.29147C101.876 7.67547 100.361 9.0648 98.6398 9.25147V9.33413C99.2132 9.60347 99.7252 10.0808 100.381 11.1995L103.024 15.7408H101.077L98.4758 11.0968C97.9225 10.1421 97.2865 9.70747 96.2425 9.70747H95.1158V15.7408H93.4772V1.20747H97.0825Z" stroke="#231F20" stroke-width="0.333333" stroke-miterlimit="10"/>
<path d="M104.293 1.20773H106.074L109.374 11.6557C109.66 12.5891 109.968 13.5424 110.234 14.4757H110.317C110.582 13.5424 110.89 12.6104 111.177 11.6557L114.496 1.20773H116.176L111.484 15.7397H108.985L104.293 1.20773Z" fill="#231F20"/>
<path d="M104.293 1.20773H106.074L109.374 11.6557C109.66 12.5891 109.968 13.5424 110.234 14.4757H110.317C110.582 13.5424 110.89 12.6104 111.177 11.6557L114.496 1.20773H116.176L111.484 15.7397H108.985L104.293 1.20773Z" stroke="#231F20" stroke-width="0.333333" stroke-miterlimit="10"/>
<path d="M119.637 1.20775H121.276V15.7397H119.637V1.20775Z" fill="#231F20" stroke="#231F20" stroke-width="0.333333" stroke-miterlimit="10"/>
<path d="M131.661 1C133.853 1 135.001 1.788 135.472 2.20267L134.448 3.46667C133.833 2.948 132.993 2.49334 131.497 2.49334C128.997 2.49334 127.461 4.33734 127.461 8.44267C127.461 12.3813 128.916 14.4347 131.661 14.4347C133.116 14.4347 133.956 14.04 134.468 13.5427L135.369 14.724C134.735 15.3467 133.485 15.9467 131.436 15.9467C127.481 15.9467 125.781 13.0653 125.781 8.588C125.781 3.82 127.829 1 131.661 1Z" fill="#231F20"/>
<path d="M131.661 1C133.853 1 135.001 1.788 135.472 2.20267L134.448 3.46667C133.833 2.948 132.993 2.49334 131.497 2.49334C128.997 2.49334 127.461 4.33734 127.461 8.44267C127.461 12.3813 128.916 14.4347 131.661 14.4347C133.116 14.4347 133.956 14.04 134.468 13.5427L135.369 14.724C134.735 15.3467 133.485 15.9467 131.436 15.9467C127.481 15.9467 125.781 13.0653 125.781 8.588C125.781 3.82 127.829 1 131.661 1Z" stroke="#231F20" stroke-width="0.333333" stroke-miterlimit="10"/>
<path d="M139.447 1.20775H141.085V15.7397H139.447V1.20775Z" fill="#231F20" stroke="#231F20" stroke-width="0.333333" stroke-miterlimit="10"/>
<path d="M151.184 14.455C153.56 14.455 155.056 13.0444 155.056 8.5457C155.056 4.0057 153.519 2.49237 151.123 2.49237C148.787 2.49237 147.271 3.8817 147.271 8.40037C147.271 12.9417 148.807 14.455 151.184 14.455ZM151.081 15.947C147.66 15.947 145.591 13.895 145.591 8.5457C145.591 3.1777 147.783 1.00037 151.245 1.00037C154.647 1.00037 156.736 3.05237 156.736 8.40037C156.736 13.771 154.523 15.947 151.081 15.947" fill="#231F20"/>
<path d="M151.184 14.455C153.56 14.455 155.056 13.0444 155.056 8.5457C155.056 4.0057 153.519 2.49237 151.123 2.49237C148.787 2.49237 147.271 3.8817 147.271 8.40037C147.271 12.9417 148.807 14.455 151.184 14.455ZM151.081 15.947C147.66 15.947 145.591 13.895 145.591 8.5457C145.591 3.1777 147.783 1.00037 151.245 1.00037C154.647 1.00037 156.736 3.05237 156.736 8.40037C156.736 13.771 154.523 15.947 151.081 15.947V15.947Z" stroke="#231F20" stroke-width="0.333333" stroke-miterlimit="10"/>
<path d="M167.368 12.0293C167.368 8.73334 160.525 9.47867 160.525 4.89734C160.525 2.7 162.389 1 164.97 1C166.589 1 167.86 1.53867 168.678 2.224L167.674 3.508C166.958 2.928 166.077 2.51334 164.868 2.51334C163.188 2.51334 162.184 3.46667 162.184 4.79334C162.184 8.152 169.028 7.44667 169.028 11.9253C169.028 14.1227 167.306 15.9467 164.233 15.9467C162.061 15.9467 160.565 15.16 159.746 14.4133L160.709 13.0867C161.508 13.7507 162.656 14.4547 164.376 14.4547C166.322 14.4547 167.368 13.3773 167.368 12.0293Z" fill="#231F20"/>
<path d="M167.368 12.0293C167.368 8.73334 160.525 9.47867 160.525 4.89734C160.525 2.7 162.389 1 164.97 1C166.589 1 167.86 1.53867 168.678 2.224L167.674 3.508C166.958 2.928 166.077 2.51334 164.868 2.51334C163.188 2.51334 162.184 3.46667 162.184 4.79334C162.184 8.152 169.028 7.44667 169.028 11.9253C169.028 14.1227 167.306 15.9467 164.233 15.9467C162.061 15.9467 160.565 15.16 159.746 14.4133L160.709 13.0867C161.508 13.7507 162.656 14.4547 164.376 14.4547C166.322 14.4547 167.368 13.3773 167.368 12.0293Z" stroke="#231F20" stroke-width="0.333333" stroke-miterlimit="10"/>
<path d="M182.152 1.20773V14.2677H188.318V15.7397H180.513V1.20773H182.152Z" fill="#231F20"/>
<path d="M182.152 1.20773V14.2677H188.318V15.7397H180.513V1.20773H182.152Z" stroke="#231F20" stroke-width="0.333333" stroke-miterlimit="10"/>
<path d="M196.124 14.455C198.5 14.455 199.996 13.0444 199.996 8.5457C199.996 4.0057 198.458 2.49237 196.062 2.49237C193.726 2.49237 192.21 3.8817 192.21 8.40037C192.21 12.9417 193.746 14.455 196.124 14.455ZM196.021 15.947C192.6 15.947 190.53 13.895 190.53 8.5457C190.53 3.1777 192.722 1.00037 196.185 1.00037C199.586 1.00037 201.676 3.05237 201.676 8.40037C201.676 13.771 199.462 15.947 196.021 15.947" fill="#231F20"/>
<path d="M196.124 14.455C198.5 14.455 199.996 13.0444 199.996 8.5457C199.996 4.0057 198.458 2.49237 196.062 2.49237C193.726 2.49237 192.21 3.8817 192.21 8.40037C192.21 12.9417 193.746 14.455 196.124 14.455ZM196.021 15.947C192.6 15.947 190.53 13.895 190.53 8.5457C190.53 3.1777 192.722 1.00037 196.185 1.00037C199.586 1.00037 201.676 3.05237 201.676 8.40037C201.676 13.771 199.462 15.947 196.021 15.947V15.947Z" stroke="#231F20" stroke-width="0.333333" stroke-miterlimit="10"/>
<path d="M214.478 10.8893V1.208H216.117V10.6813C216.117 14.1853 214.109 15.9467 210.893 15.9467C207.656 15.9467 205.914 14.0613 205.914 10.9307V1.208H207.553V10.6813C207.553 13.2933 208.926 14.4547 211.077 14.4547C213.168 14.4547 214.478 13.48 214.478 10.8893Z" fill="#231F20"/>
<path d="M214.478 10.8893V1.208H216.117V10.6813C216.117 14.1853 214.109 15.9467 210.893 15.9467C207.656 15.9467 205.914 14.0613 205.914 10.9307V1.208H207.553V10.6813C207.553 13.2933 208.926 14.4547 211.077 14.4547C213.168 14.4547 214.478 13.48 214.478 10.8893Z" stroke="#231F20" stroke-width="0.333333" stroke-miterlimit="10"/>
<path d="M222.549 3.17722C222.591 4.42122 222.611 5.58255 222.611 7.03322V15.7399H221.053V1.20788H223.348L228.184 10.4119C228.736 11.4692 229.331 12.6106 229.843 13.6879H229.987C229.945 12.3612 229.945 11.0132 229.945 9.79055V1.20788H231.481V15.7399H229.228L224.352 6.47322C223.779 5.39588 223.245 4.29588 222.713 3.17722H222.549Z" fill="#231F20"/>
<path d="M222.549 3.17722C222.591 4.42122 222.611 5.58255 222.611 7.03322V15.7399H221.053V1.20788H223.348L228.184 10.4119C228.736 11.4692 229.331 12.6106 229.843 13.6879H229.987C229.945 12.3612 229.945 11.0132 229.945 9.79055V1.20788H231.481V15.7399H229.228L224.352 6.47322C223.779 5.39588 223.245 4.29588 222.713 3.17722H222.549Z" stroke="#231F20" stroke-width="0.333333" stroke-miterlimit="10"/>
<path d="M245.924 2.24419L244.858 3.50819C244.244 2.90819 243.301 2.51352 241.868 2.51352C239.778 2.51352 237.482 3.63352 237.482 8.38019C237.482 12.7549 239.02 14.4962 241.826 14.4962C242.749 14.4962 243.773 14.3095 244.346 13.9162V8.36019H245.985V14.6415C245.062 15.4082 243.69 15.9469 241.478 15.9469C237.77 15.9469 235.804 13.4802 235.804 8.52552C235.804 3.28019 238.548 1.00019 241.97 1.00019C244.346 1.00019 245.452 1.78819 245.924 2.24419Z" fill="#231F20"/>
<path d="M245.924 2.24419L244.858 3.50819C244.244 2.90819 243.301 2.51352 241.868 2.51352C239.778 2.51352 237.482 3.63352 237.482 8.38019C237.482 12.7549 239.02 14.4962 241.826 14.4962C242.749 14.4962 243.773 14.3095 244.346 13.9162V8.36019H245.985V14.6415C245.062 15.4082 243.69 15.9469 241.478 15.9469C237.77 15.9469 235.804 13.4802 235.804 8.52552C235.804 3.28019 238.548 1.00019 241.97 1.00019C244.346 1.00019 245.452 1.78819 245.924 2.24419Z" stroke="#231F20" stroke-width="0.333333" stroke-miterlimit="10"/>
<path d="M250.634 15.7403V1.20831H258.255V2.67898H252.273V7.63364H257.538V9.10564H252.273V14.2683H258.542V15.7403H250.634Z" fill="#231F20"/>
<path d="M250.634 15.7403V1.20831H258.255V2.67898H252.273V7.63364H257.538V9.10564H252.273V14.2683H258.542V15.7403H250.634Z" stroke="#231F20" stroke-width="0.333333" stroke-miterlimit="10"/>
<path d="M21.9147 132.454C20.4533 132.541 18.9027 132.509 17.2653 132.347C15.6267 132.186 13.9987 131.862 12.38 131.387C10.76 130.913 9.2 130.249 7.7 129.394C6.2 128.538 4.87733 127.47 3.73333 126.193C2.588 124.915 1.67867 123.411 1.00667 121.689C0.336001 119.965 0 117.986 0 115.759C0 113.53 0.552001 111.543 1.656 109.782C2.76133 108.022 4.20267 106.459 5.97733 105.086C7.752 103.713 9.75333 102.511 11.9827 101.47C14.2107 100.429 16.4187 99.5365 18.6093 98.8032C20.7987 98.0712 22.8707 97.4859 24.8227 97.0539C26.776 96.6205 29.6453 96.2152 29.6453 96.2152C29.664 96.1552 28.3387 94.9605 27.824 94.1859C27.38 93.5179 26.932 92.6779 26.5587 91.6885C26.188 90.6992 26 89.5392 26 88.2112C26 86.6765 26.5493 85.1379 27.6467 83.5845C28.744 82.0312 30.1933 80.6165 31.9987 79.3259C33.804 78.0379 35.8813 76.9179 38.2307 75.9539C40.58 74.9899 42.9987 74.3245 45.4867 73.9645C48.012 73.5979 50.076 73.5499 51.6747 73.8445C53.2747 74.1405 54.5293 74.5779 55.4373 75.1659C56.3453 75.7552 56.9787 76.3885 57.3333 77.0685C57.6893 77.7485 57.8653 78.2619 57.8653 78.6059C57.8653 78.9859 57.7853 79.2659 57.628 79.4485C57.4707 79.6312 57.2827 79.7592 57.0667 79.8299C56.8493 79.9019 56.66 79.9072 56.5027 79.8472C56.3453 79.7872 56.2973 79.6352 56.2667 79.5512C56.0867 79.0645 55.0227 78.4512 54.0747 78.0552C53.2467 77.7085 52.1387 77.4565 50.7573 77.2939C49.376 77.1325 47.5987 77.2125 45.428 77.5245C43.4533 77.8085 41.7267 78.4059 40.2467 79.3179C38.7667 80.2312 37.5293 81.2285 36.544 82.3219C35.556 83.4152 34.816 84.5005 34.3227 85.5819C33.8307 86.6619 33.5827 87.5099 33.5827 88.1245C33.5827 89.5272 33.7587 90.6605 34.1147 91.5285C34.4707 92.3952 34.9147 93.0992 35.448 93.6365C35.9813 94.1765 36.5533 94.5632 37.1653 94.7992C37.7773 95.0365 38.352 95.2179 38.884 95.3419C39.416 95.4645 39.8613 95.5579 40.2173 95.6165C40.572 95.6752 40.748 95.7725 40.748 95.9099C40.748 96.1485 40.7293 96.3979 40.6907 96.6605C40.6507 96.9232 40.4427 97.1912 40.068 97.4592C39.692 97.7285 39.0507 97.9859 38.1427 98.2299C37.2333 98.4739 35.912 98.6965 34.1747 98.8832C30.392 99.2872 27.0253 100.033 24.072 101.149C21.1173 102.266 18.6373 103.603 16.6293 105.19C14.6213 106.777 13.084 108.547 12.0213 110.521C10.9573 112.494 10.424 114.543 10.424 116.678C10.424 118.407 10.6707 120.051 11.164 121.613C11.6573 123.173 12.388 124.55 13.356 125.737C14.324 126.922 15.508 127.842 16.9093 128.49C18.3107 129.139 19.9013 129.411 21.6773 129.303C23.0587 129.219 24.144 129.085 24.9347 128.909C25.724 128.733 26.3187 128.537 26.712 128.346C27.1373 128.139 27.5107 127.77 27.4813 127.673C27.4693 127.633 27.3493 127.453 27.304 127.226C27.272 127.063 27.2347 126.793 27.216 126.419C27.1947 126.045 27.1853 125.535 27.1853 124.886C27.1853 124.239 27.332 123.673 27.624 123.19C27.916 122.705 28.24 122.259 28.5907 121.906C29 121.494 29.9973 120.813 29.9973 120.813C30.012 120.825 29.7213 121.743 29.76 122.317C29.8 122.894 29.9147 123.443 30.0573 123.934C30.2267 124.517 30.5787 125.722 30.7133 125.769C30.8973 125.834 31.9427 125.065 32.4427 124.641C32.8787 124.271 33.2787 123.783 33.6373 123.218C33.996 122.654 34.1747 121.997 34.1747 121.245C34.1747 120.493 34.016 119.967 33.696 119.674C33.3773 119.382 33.0253 119.167 32.6733 119.081C32.2507 118.975 31.232 119.111 31.232 119.111C31.2107 119.085 31.6093 118.466 31.8867 118.182C32.112 117.954 32.4427 117.729 32.84 117.502C33.2373 117.277 33.732 117.134 34.3293 117.074C35.48 116.958 36.472 117.21 37.3053 117.839C38.14 118.47 38.5573 119.602 38.5573 121.247C38.5573 121.966 38.3693 122.69 37.9947 123.415C37.6187 124.141 37.136 124.825 36.544 125.467C35.9507 126.11 35.3 126.725 34.5893 127.307C33.8787 127.89 32.54 128.683 32.516 128.834C32.4413 129.305 34.9453 131.505 36.3667 132.543C37.788 133.582 39.268 134.401 40.808 135.002C42.348 135.602 43.8773 135.965 45.3973 136.09C46.916 136.213 48.3933 136.074 49.7507 135.638C50.416 135.425 50.964 135.17 51.3787 134.907C51.7933 134.643 52.12 134.387 52.3573 134.149C52.6333 133.87 52.9707 133.443 52.948 133.342C52.9173 133.201 52.5453 132.798 52.5653 132.417C52.5853 132.034 52.6827 131.73 52.86 131.499C53.0373 131.267 53.2467 131.174 53.4827 131.226C53.72 131.278 53.9213 131.627 54.0747 132.257C54.236 132.918 54.212 133.611 54.0147 134.329C53.8173 135.046 53.4213 135.766 52.8307 136.486C52.2373 137.205 51.4387 137.879 50.432 138.513C49.424 139.145 48.1453 139.695 46.612 140.163C44.9587 140.67 43.3133 140.77 41.6947 140.437C40.076 140.102 38.5173 139.482 37.0173 138.589C35.5173 137.694 34.1053 136.559 32.7827 135.191C31.4587 133.822 29.7907 130.905 29.2587 130.755C29.0453 130.695 27.9813 131.297 27.244 131.531C26.5773 131.742 25.7933 131.943 24.9053 132.107C24.0173 132.271 23.02 132.387 21.9147 132.454Z" fill="#231F20"/>
<path d="M66.6861 121.024C65.2835 121.269 64.1021 121.036 63.1421 120.333C62.1821 119.632 61.4795 118.725 61.0381 117.617C60.5981 116.511 60.4408 115.299 60.5715 113.983C60.6995 112.667 61.9341 110.451 61.9341 110.451C61.9341 110.451 58.4155 115.075 56.7155 117.017C55.9875 117.849 55.2381 118.668 54.4595 119.464C53.6808 120.26 52.8981 120.977 52.1195 121.608C51.3408 122.24 50.5901 122.764 49.8635 123.179C49.1355 123.596 48.4861 123.841 47.9141 123.917C47.0835 124.028 46.2648 123.996 45.4608 123.82C44.6555 123.644 43.9421 123.289 43.3195 122.765C42.6955 122.24 42.2155 121.549 41.8795 120.685C41.5421 119.823 41.4341 118.723 41.5288 117.411C41.5848 116.643 41.9675 115.553 42.6955 114.156C43.4221 112.759 44.3181 111.203 45.3835 109.481C46.4461 107.761 47.5901 105.932 48.8101 103.996C50.0301 102.061 51.1715 100.173 52.2368 98.3362C53.2995 96.5002 54.1968 94.7842 54.9248 93.1948C55.6501 91.6068 56.0528 90.2402 56.1701 89.1522C56.2155 88.7402 56.6261 88.5108 57.3781 88.4762C58.1301 88.4415 58.9341 88.6202 59.7915 89.0175C60.6475 89.4162 61.4168 90.0428 62.0915 90.9002C62.7661 91.7588 63.0741 92.9055 62.9475 94.2588C62.8608 95.1695 62.3248 96.5162 61.3888 98.2442C60.4555 99.9722 59.3381 101.852 58.0408 103.877C56.7421 105.904 55.4048 107.952 54.0288 110.017C52.6528 112.084 51.4715 113.941 50.4861 115.597C49.4995 117.252 48.8355 118.576 48.4981 119.569C48.1608 120.563 48.4355 121.003 49.3181 120.883C49.6301 120.839 50.4861 120.148 51.8875 118.792C53.2888 117.437 54.9515 115.687 56.8728 113.525C58.7941 111.365 60.8315 108.952 62.9875 106.285C65.1408 103.619 67.1395 100.957 68.9835 98.3108C70.8248 95.6655 72.3715 93.1988 73.6181 90.9202C74.8635 88.6415 75.5128 86.7922 75.6435 85.4775C75.6848 85.0642 76.0728 84.8655 76.7728 84.9028C77.4728 84.9415 78.2408 85.1815 79.0701 85.6228C79.9008 86.0642 80.6275 86.7562 81.2501 87.6975C81.8741 88.6402 82.1195 89.8215 82.0288 91.2055C81.9688 92.1228 81.4848 93.4735 80.5501 95.2228C79.6155 96.9762 78.5248 98.8708 77.2795 100.905C76.0328 102.939 74.7341 104.997 73.3835 107.081C72.0341 109.167 70.8648 111.025 69.8795 112.663C68.8928 114.304 68.2301 115.616 67.8928 116.609C67.5541 117.605 67.7768 118.035 68.5568 117.895C68.9715 117.821 69.6328 117.391 70.5421 116.608C71.4501 115.827 72.5275 114.784 73.7728 113.473C75.0195 112.164 76.3835 110.656 77.8635 108.941C79.3435 107.231 80.8488 105.423 82.3808 103.523C83.9115 101.623 85.3915 99.7015 86.8195 97.7602C88.2475 95.8215 89.5541 93.9322 90.6768 92.1162C90.9368 91.6948 91.2595 91.3868 91.6488 91.2055C92.0381 91.0242 92.3621 90.9722 92.6221 91.0508C92.8808 91.1282 93.0235 91.3375 93.0501 91.6762C93.0768 92.0148 92.8688 92.5122 92.4661 93.1562C92.2048 93.5762 91.5435 94.5508 90.4808 96.0522C89.4155 97.5548 88.1301 99.3215 86.6248 101.345C85.1181 103.369 83.4568 105.487 81.6395 107.693C79.8221 109.9 78.0061 111.957 76.1888 113.864C74.3715 115.773 72.6315 117.387 70.9701 118.719C69.3088 120.049 67.8795 120.816 66.6861 121.024Z" fill="#231F20"/>
<path d="M93.7121 82.8699C93.7121 83.5152 93.7775 84.0379 93.9081 84.4459C94.0375 84.8526 94.2241 85.1952 94.4135 85.4646C94.6241 85.7632 95.0668 86.2752 95.1148 86.2659C95.6508 86.1619 97.3735 82.1419 98.4628 80.2192C99.5535 78.2979 100.451 76.6032 101.152 75.1392C101.852 73.6752 102.307 72.5326 102.515 71.7206C102.723 70.9086 102.487 70.5872 101.812 70.7552C101.137 70.9246 100.345 71.4912 99.4375 72.4512C98.5281 73.4126 97.6455 74.5259 96.7881 75.7912C95.9321 77.0579 95.2041 78.3459 94.6081 79.6606C94.0108 80.9752 93.7121 82.0419 93.7121 82.8699ZM121.669 123.425C122.029 122.777 122.421 122.539 122.837 122.713C123.044 122.799 123.303 123.021 123.305 123.15C123.321 123.806 122.119 125.211 121.203 126.189C120.423 127.018 119.375 127.866 118.051 128.679C116.727 129.493 115.051 130.147 113.027 130.637C111.001 131.125 108.86 131.217 106.601 130.915C104.343 130.613 102.265 129.842 100.371 128.615C98.4761 127.389 96.9161 125.654 95.6975 123.421C94.4761 121.185 93.8681 118.39 93.8681 115.037C93.8681 112.599 94.2441 110.067 94.9975 107.435C95.7495 104.805 96.6721 102.231 97.7628 99.7206C98.8521 97.2099 100.008 94.8646 101.228 92.6806C102.448 90.4966 104.461 87.1846 104.461 87.1846C104.439 87.1632 101.813 88.7592 99.9441 89.6699C98.0748 90.5819 96.0215 91.2979 93.7908 91.8139C93.2175 91.9472 92.5948 92.0006 91.9201 91.9712C91.2455 91.9419 90.5961 91.6872 89.9735 91.2086C89.3508 90.7299 88.8321 89.9619 88.4175 88.9099C88.0028 87.8579 87.7935 86.3899 87.7935 84.5086C87.7935 81.8032 88.2988 79.2139 89.3121 76.7312C90.3241 74.2512 91.5815 72.0166 93.0881 70.0259C94.5935 68.0366 96.1908 66.3699 97.8788 65.0312C99.5655 63.6939 101.083 62.8512 102.435 62.5086C103.887 62.1392 105.135 62.2099 106.172 62.7272C107.211 63.2432 107.732 64.2179 107.732 65.6472C107.732 66.3406 107.575 67.1779 107.264 68.1592C106.952 69.1406 106.536 70.2059 106.017 71.3539C105.497 72.5019 104.916 73.6779 104.267 74.8792C103.617 76.0806 102.955 77.2512 102.281 78.3846C100.673 81.0899 96.9055 86.8752 96.9055 86.8752C96.9348 86.9046 100.62 84.2686 102.28 83.0859C103.671 82.0939 105.032 81.1366 106.329 80.2099C107.628 79.2832 108.487 78.6406 108.903 78.3086C109.413 77.8979 109.939 77.4792 110.459 77.0419C110.977 76.6086 111.599 76.5272 112.249 76.8232C112.556 76.9619 113.107 77.2472 113.885 77.6446C114.664 78.0432 115.364 78.5539 115.987 79.1766C116.609 79.8019 117.013 80.5432 117.195 81.3979C117.376 82.2552 117.005 83.2419 116.143 84.3486C115.257 85.4872 114.027 87.2632 112.444 89.6126C110.859 91.9606 109.301 94.6072 107.771 97.5512C106.239 100.494 104.916 103.586 103.8 106.827C102.683 110.071 102.123 113.185 102.123 116.181C102.123 119.178 102.54 121.55 103.369 123.293C104.199 125.037 105.212 126.325 106.407 127.151C107.601 127.979 108.897 128.445 110.299 128.549C111.701 128.653 112.973 128.565 114.116 128.287C116.451 127.719 118.189 126.953 119.333 125.995C120.475 125.038 121.252 124.174 121.669 123.425" fill="#231F20"/>
<path d="M143.007 94.7728C142.434 94.9315 141.902 94.9821 141.411 94.9315C140.919 94.8808 140.304 94.6061 140.202 94.6341C140.015 94.6848 139.607 95.5395 139.347 95.7781C139.263 95.8541 139.142 95.9968 139.036 96.1421C138.948 96.2648 138.814 96.4155 138.684 96.5901C138.554 96.7661 138.414 96.9888 138.256 97.1981C136.574 99.4595 134.36 101.595 132.182 103.527C130.002 105.463 127.079 106.682 125.642 107.702C125.591 107.738 125.512 107.807 125.41 107.834C125.202 107.887 125.07 107.941 125.019 108.001C124.707 108.082 124.552 108.123 124.242 108.203C123.463 108.406 122.591 108.517 121.632 108.531C120.672 108.546 119.764 108.35 118.907 107.942C118.051 107.534 117.338 106.835 116.766 105.845C116.195 104.855 115.91 103.431 115.91 101.578C115.91 99.4928 116.284 97.3115 117.038 95.0315C117.79 92.7515 118.803 90.4955 120.075 88.2568C121.347 86.0195 122.799 83.8448 124.435 81.7315C126.07 79.6168 127.756 77.7021 129.496 75.9901C131.235 74.2768 132.96 72.8301 134.674 71.6501C136.387 70.4701 137.946 69.6795 139.347 69.2821C141.528 68.6635 143.394 68.6808 144.951 69.3341C146.511 69.9888 147.782 70.9261 148.768 72.1435C148.924 72.3341 148.767 72.6848 148.3 73.1928C147.834 73.7008 146.718 74.2061 144.952 74.7075C142.826 75.3115 140.694 76.5328 138.567 78.3661C136.438 80.2008 134.467 82.2901 132.648 84.6288C130.832 86.9688 129.236 89.3928 127.86 91.9035C126.484 94.4128 125.434 96.6781 124.707 98.7048C123.979 100.734 123.658 102.355 123.735 103.565C123.812 104.777 124.423 105.23 125.566 104.93C126.707 104.631 128.031 103.866 129.536 102.627C131.042 101.389 132.467 100.023 133.819 98.6128C135.396 96.9675 138.55 94.2275 138.646 93.1675C138.658 93.0248 138.37 92.5008 138.256 92.0821C138.167 91.7461 138.074 91.3155 138.023 90.8155C137.972 90.3195 137.946 89.7408 137.946 89.0848C137.946 87.6848 138.347 86.3835 139.152 85.1795C139.956 83.9741 140.838 83.0861 141.798 82.5128C142.759 81.9395 143.642 81.7861 144.446 82.0501C145.251 82.3155 145.654 83.1715 145.654 84.6235C145.654 85.2795 145.316 86.2421 144.643 87.5075C143.966 88.7741 141.659 91.6928 141.759 92.1688C141.766 92.2021 142.088 92.2781 142.424 92.3008C142.759 92.3248 143.032 92.3075 143.24 92.2488C144.174 91.9915 145.107 91.4141 146.042 90.5221C146.978 89.6301 147.99 88.4315 149.078 86.9315C150.17 85.4288 151.347 83.6421 152.62 81.5661C153.895 79.4915 155.338 77.1421 156.866 74.5408C157.127 74.0941 157.45 73.7475 157.84 73.5168C158.228 73.2888 158.554 73.2061 158.814 73.2728C159.072 73.3381 159.215 73.5595 159.242 73.9275C159.267 74.2981 159.06 74.8261 158.658 75.5061C158.396 75.9515 157.995 76.6955 157.45 77.7208C156.906 78.7461 156.23 79.9155 155.424 81.2261C154.618 82.5381 153.726 83.9315 152.739 85.4075C151.752 86.8835 150.727 88.2648 149.664 89.5461C148.602 90.8288 147.496 91.9448 146.356 92.8941C145.212 93.8448 144.095 94.4715 143.007 94.7728Z" fill="#231F20"/>
<path d="M157.878 95.6264C158.657 95.4077 159.822 94.4491 161.381 92.7371C162.938 91.0291 164.626 88.9611 166.443 86.5344C168.261 84.1091 170.09 81.5117 171.933 78.7384C173.774 75.9677 175.346 73.4344 176.645 71.1437C177.941 68.8544 178.837 66.9957 179.33 65.5731C179.823 64.1504 179.654 63.5597 178.823 63.7997C178.201 63.9811 177.226 64.7011 175.902 65.9597C174.578 67.2197 173.127 68.7877 171.543 70.6624C169.959 72.5371 168.323 74.6237 166.638 76.9237C164.951 79.2251 163.406 81.5064 162.005 83.7651C160.602 86.0264 159.461 88.1597 158.578 90.1731C157.695 92.1851 157.254 93.8757 157.254 95.2371C157.254 95.3317 157.281 95.4197 157.333 95.4997C157.437 95.6584 157.618 95.6997 157.878 95.6264ZM177.187 89.9904C177.759 89.8304 178.889 88.8531 180.575 87.0504C182.261 85.2504 184.183 83.0131 186.338 80.3411C188.49 77.6704 190.699 74.7677 192.957 71.6344C195.214 68.5011 197.173 65.3904 198.911 62.6357C199.205 62.1717 199.559 61.8211 199.922 61.5997C200.286 61.3797 200.611 61.3011 200.897 61.3651C201.182 61.4277 201.337 61.6504 201.363 62.0237C201.39 62.3984 201.182 62.9331 200.779 63.6184C200.517 64.0651 199.859 65.1051 198.795 66.7131C197.731 68.3224 196.433 70.2117 194.902 72.3771C193.371 74.5437 191.682 76.8491 189.841 79.2904C187.997 81.7317 186.169 84.0144 184.351 86.1357C182.534 88.2584 180.795 90.0717 179.135 91.5771C177.473 93.0851 176.045 94.0051 174.851 94.3384C173.917 94.5997 173.021 94.6971 172.166 94.6291C171.311 94.5611 170.557 94.2651 169.907 93.7384C169.258 93.2117 168.726 92.4157 168.311 91.3544C167.897 90.2931 167.687 87.2104 167.687 87.2104C167.573 87.1744 164.757 91.3384 163.406 93.0171C162.227 94.4837 160.978 95.8651 159.707 97.1611C158.434 98.4597 157.385 99.2224 156.554 99.4544C155.723 99.6851 154.825 99.7811 153.867 99.7424C152.906 99.7037 152.013 99.4491 151.182 98.9757C150.35 98.5024 149.662 97.7877 149.117 96.8371C148.571 95.8877 148.299 94.6157 148.299 93.0197C148.299 91.4277 148.766 89.5411 149.701 87.3531C150.634 85.1677 151.87 82.8837 153.402 80.4997C154.931 78.1171 156.658 75.7384 158.578 73.3744C160.498 71.0104 162.434 68.8384 164.379 66.8584C166.326 64.8784 168.182 63.2024 169.946 61.8371C171.71 60.4704 173.215 59.6077 174.462 59.2437C175.81 58.8491 176.955 58.7411 177.89 58.9197C178.823 59.0984 179.598 59.3557 180.145 59.7171C180.763 60.1251 181.626 61.3517 181.626 61.3517C182.451 61.3531 187.607 50.5464 190.113 45.9184C191.183 43.9424 192.254 41.9517 193.266 39.9664C194.278 37.9811 195.185 36.1437 195.991 34.4557C196.795 32.7664 197.445 31.3024 197.938 30.0611C198.433 28.8197 198.678 27.9344 198.678 27.4091C198.678 26.8371 199.027 26.3531 199.729 25.9584C200.429 25.5624 201.182 25.4744 201.986 25.6944C202.791 25.9144 203.543 26.5571 204.243 27.6224C204.945 28.6864 205.295 30.3691 205.295 32.6651C205.295 33.7171 204.817 35.3597 203.857 37.5944C202.895 39.8277 201.649 42.4171 200.118 45.3597C198.586 48.3024 196.859 51.4797 194.939 54.8864C193.019 58.2931 191.099 61.6864 189.179 65.0637C187.259 68.4411 185.427 71.6691 183.69 74.7477C181.95 77.8317 180.485 80.5331 179.291 82.8597C178.097 85.1877 177.278 87.0077 176.838 88.3144C176.397 89.6224 176.514 90.1797 177.187 89.9904Z" fill="#231F20"/>
<path d="M217.364 46.8607C218.506 46.554 219.547 46.6727 220.479 47.218C221.412 47.7633 222.154 48.4487 222.698 49.2687C223.243 50.0887 223.58 50.8767 223.711 51.638C223.839 52.398 223.698 52.8313 223.282 52.9393C221.776 53.3313 219.999 54.4007 217.948 56.1487C215.898 57.898 213.823 59.97 211.72 62.362C209.618 64.7553 207.591 67.2753 205.644 69.9153C203.698 72.5553 202.09 74.962 200.818 77.1287C199.546 79.2967 198.703 81.0367 198.288 82.3473C197.872 83.6567 198.131 84.1807 199.064 83.926C199.376 83.8407 200.038 83.2567 201.051 82.17C202.063 81.0833 203.231 79.7407 204.556 78.138C205.88 76.5367 207.255 74.8047 208.683 72.9367C210.11 71.0687 211.406 69.33 212.574 67.7247C213.742 66.1193 214.676 64.742 215.378 63.5953C216.078 62.45 216.386 61.742 216.274 61.558C216.111 61.2873 216.232 61.066 216.779 60.9207C217.323 60.778 217.976 60.7953 218.728 60.9833C219.478 61.17 220.18 61.59 220.828 62.238C221.476 62.8873 221.802 63.862 221.802 65.1607C221.802 66.4593 221.438 67.9633 220.711 69.6647C219.984 71.366 219.232 72.9527 218.454 74.4273C217.674 75.902 217.079 77.1127 216.664 78.0593C216.247 79.0087 216.352 79.402 216.975 79.242C217.598 79.0807 218.714 78.122 220.322 76.3633C221.931 74.6073 223.75 72.4233 225.775 69.8193C227.799 67.214 229.902 64.3767 232.083 61.3047C234.262 58.2327 236.186 55.1727 237.924 52.4513C238.216 51.994 238.572 51.654 238.936 51.4447C239.299 51.238 239.622 51.1687 239.908 51.2473C240.192 51.3247 240.351 51.5567 240.378 51.9367C240.403 52.318 240.215 52.8713 239.794 53.5273C239.5 53.986 238.819 55.0047 237.807 56.578C236.795 58.15 235.56 59.9967 234.107 62.1113C232.652 64.2313 231.044 66.482 229.279 68.8727C227.512 71.2633 225.744 73.4967 223.98 75.574C222.215 77.6513 220.528 79.414 218.92 80.8607C217.311 82.31 215.911 83.19 214.718 83.498C213.938 83.6993 213.158 83.662 212.379 83.386C211.6 83.11 210.927 82.7113 210.356 82.1913C209.787 81.6713 209.318 81.098 208.955 80.478C208.592 79.8567 208.41 79.3313 208.41 78.9007C208.41 78.47 208.475 77.982 208.604 77.4447C208.734 76.9073 208.874 76.3953 209.032 75.9313C209.228 75.3553 209.734 74.1647 209.734 74.1647C209.715 74.154 206.095 78.87 204.439 80.8953C203.038 82.6087 201.638 84.21 200.236 85.6873C198.834 87.1647 197.768 88.002 197.042 88.1993C196.314 88.398 195.534 88.406 194.704 88.2287C193.874 88.0513 193.083 87.7073 192.332 87.2007C191.58 86.694 190.955 86.0007 190.462 85.1127C189.968 84.2273 189.723 83.1393 189.723 81.8553C189.723 80.4767 190.202 78.714 191.164 76.5633C192.124 74.4153 193.382 72.1113 194.939 69.6487C196.498 67.186 198.276 64.686 200.275 62.146C202.272 59.6087 204.295 57.2647 206.347 55.118C208.396 52.9713 210.382 51.1567 212.302 49.6727C214.222 48.19 215.911 47.2513 217.364 46.8607Z" fill="#231F20"/>
<path d="M252.644 74.5203C251.137 74.8363 249.878 74.243 248.866 72.7376C247.854 71.2336 247.348 69.1003 247.348 66.3336C247.348 65.5576 247.516 64.6336 247.854 63.563C248.192 62.4936 248.634 61.3536 249.178 60.1403C249.724 58.927 250.333 57.6616 251.008 56.3483C251.682 55.035 252.38 53.731 253.11 52.4616C254.805 49.519 258.876 43.131 258.876 43.131C258.857 43.1043 257.55 44.0176 256.149 45.5336C254.746 47.0496 253.122 48.9336 251.28 51.1856C249.437 53.4376 247.504 55.9096 245.477 58.6016C243.453 61.2923 241.596 63.8656 239.91 66.3163C238.222 68.7683 236.821 70.9163 235.704 72.755C234.588 74.595 234.03 75.811 234.03 76.4016C234.03 77.7816 233.757 78.5843 233.212 78.8123C232.666 79.039 232.056 78.8896 231.381 78.3643C230.708 77.8403 230.097 76.999 229.552 75.843C229.005 74.687 228.733 73.383 228.733 71.9376C228.733 70.9723 229.109 69.6736 229.862 68.0416C230.614 66.4083 231.562 64.607 232.705 62.6363C233.846 60.667 235.093 58.6003 236.444 56.435C237.793 54.2696 239.04 52.183 240.182 50.167C241.324 48.1523 242.272 46.255 243.024 44.4776C243.777 42.7016 244.154 41.2056 244.154 39.9936C244.154 39.3643 244.452 38.991 245.049 38.875C245.645 38.7603 246.296 38.935 246.997 39.403C247.698 39.871 248.348 40.6696 248.944 41.795C249.541 42.9216 249.84 44.387 249.84 46.1843C249.84 47.107 249.697 47.955 249.412 48.7216C249.125 49.491 248.837 50.2123 248.516 50.7803C248.14 51.4456 247.192 52.755 247.192 52.755C247.194 52.7563 252.305 46.8376 254.59 44.4096C255.57 43.3683 256.55 42.3296 257.51 41.2976C258.472 40.267 259.382 39.347 260.238 38.5336C261.096 37.7216 261.861 37.0496 262.534 36.5216C263.208 35.995 263.704 35.699 264.016 35.635C264.689 35.499 265.301 35.5856 265.845 35.8923C266.392 36.199 266.846 36.6736 267.209 37.3096C267.572 37.9456 267.857 38.687 268.065 39.527C268.273 40.3683 268.377 41.2283 268.377 42.107C268.377 42.695 267.936 43.819 267.053 45.4776C266.17 47.139 265.078 49.0456 263.781 51.2043C262.482 53.3643 261.12 55.6016 259.693 57.9136C258.265 60.2256 257.005 62.335 255.914 64.2403C254.825 66.1456 254.032 67.699 253.538 68.8976C253.045 70.095 253.112 70.6283 253.733 70.4976C254.876 70.259 256.394 69.2403 258.29 67.443C260.185 65.6483 262.213 63.455 264.368 60.8683C266.521 58.2816 268.689 55.467 270.869 52.427C273.05 49.387 275.046 46.4883 276.71 43.7523C276.972 43.323 277.296 43.0016 277.685 42.8123C278.074 42.6243 278.397 42.5803 278.658 42.6843C278.917 42.787 279.06 43.0323 279.086 43.4203C279.113 43.8096 278.905 44.3376 278.505 44.9923C278.242 45.4216 277.594 46.4203 276.556 47.9696C275.516 49.5203 274.257 51.331 272.777 53.4056C271.297 55.4803 269.662 57.699 267.872 60.0576C266.081 62.419 264.261 64.623 262.42 66.667C260.576 68.7123 258.81 70.4643 257.122 71.9216C255.434 73.3803 253.941 74.2483 252.644 74.5203Z" fill="#231F20"/>
<path d="M281.308 69.278C279.334 69.5807 277.685 69.5287 276.361 69.1087C275.036 68.69 273.973 67.986 273.169 66.998C272.364 66.0114 271.78 64.818 271.416 63.4154C271.053 62.0114 270.869 60.4527 270.869 58.7394C270.869 57.614 271.206 56.1594 271.882 54.374C272.557 52.5887 273.44 50.694 274.53 48.69C275.621 46.686 276.854 44.6567 278.23 42.6087C279.606 40.5607 281.008 38.6967 282.437 37.0167C283.865 35.3367 285.252 33.938 286.602 32.8207C287.953 31.7034 289.149 31.0714 290.188 30.9207C290.758 30.838 291.238 30.9167 291.628 31.1567C292.017 31.3967 292.364 31.6767 292.602 31.982C292.864 32.318 293.225 33.2247 293.225 33.2247C293.226 33.2247 293.405 32.8074 293.769 32.414C294.132 32.0207 294.522 31.598 294.938 31.146C295.353 30.6967 295.742 30.2394 296.106 29.7727C296.469 29.306 296.65 28.8767 296.65 28.4807C296.65 28.1367 296.82 27.99 297.157 28.0447C297.494 28.1007 297.885 28.3714 298.325 28.8607C298.765 29.3487 299.157 30.0674 299.494 31.0127C299.832 31.9607 300 33.1767 300 34.6594C300 36.734 299.728 38.298 299.182 39.3514C298.637 40.4047 298.025 41.3327 297.352 42.13C296.677 42.9287 296.068 43.8074 295.522 44.7647C294.976 45.722 295.069 48.598 294.705 49.0114C294.388 49.3714 292.184 48.9087 291.354 48.1607C290.525 47.4127 289.905 46.538 289.485 45.5767C288.981 44.4247 288.473 41.5834 288.473 41.5834C288.268 41.5194 285.202 45.6394 283.877 47.8074C282.729 49.6847 281.696 51.8087 280.761 54.1194C279.826 56.4287 279.361 58.762 279.361 61.118C279.361 62.8367 279.802 63.9647 280.684 64.514C281.565 65.062 282.528 65.262 283.566 65.1074C283.981 65.0447 284.684 64.6074 285.669 63.8007C286.656 62.9954 287.81 61.9447 289.134 60.654C290.458 59.3647 291.913 57.8767 293.498 56.194C295.081 54.5127 296.664 52.7394 298.248 50.8727C299.832 49.0087 301.364 47.1167 302.842 45.2034C304.324 43.2887 305.62 41.3874 306.778 39.714C307.07 39.29 307.425 38.994 307.789 38.8354C308.152 38.678 308.477 38.658 308.764 38.7794C309.049 38.902 309.205 39.1647 309.23 39.5554C309.257 39.9487 309.046 40.4647 308.645 41.094C308.384 41.506 307.685 42.474 306.542 43.9714C305.401 45.47 304.012 47.218 302.377 49.222C300.741 51.2274 298.949 53.37 297.002 55.6514C295.056 57.9327 293.108 60.0487 291.16 62.006C289.213 63.962 287.384 65.6194 285.669 66.9727C283.956 68.3247 282.502 69.0954 281.308 69.278Z" fill="#231F20"/>
<path d="M322.665 37.0971C322.355 37.1131 321.912 37.3637 321.341 37.8437C320.769 38.3224 320.16 38.9571 319.512 39.7411C318.861 40.5277 318.161 41.4157 317.409 42.4091C316.656 43.4051 315.897 44.4037 315.189 45.3971C313.468 47.8104 309.657 53.6491 309.657 53.6491C309.707 53.6984 314.592 50.1171 316.513 48.1731C318.435 46.2317 319.968 44.4411 321.109 42.7851C322.251 41.1291 322.952 39.7611 323.213 38.6771C323.472 37.5944 323.288 37.0651 322.665 37.0971ZM335.597 38.6397C335.888 38.2397 336.247 37.9744 336.609 37.8464C336.973 37.7197 337.295 37.7277 337.581 37.8771C337.865 38.0277 338.024 38.3037 338.051 38.7024C338.076 39.1024 337.865 39.6064 337.465 40.2051C337.203 40.5971 336.504 41.4957 335.363 42.8824C334.221 44.2677 332.793 45.8864 331.081 47.7451C329.367 49.6077 327.469 51.5811 325.392 53.6784C323.316 55.7757 321.197 57.7157 319.044 59.5024C316.889 61.2891 314.787 62.8051 312.736 64.0451C310.684 65.2864 308.775 66.0451 307.167 66.1304C305.816 66.2024 304.517 65.8771 303.428 65.2917C302.495 64.7904 301.636 63.9757 300.856 62.8477C300.077 61.7211 299.688 59.9984 299.688 57.6757C299.688 55.4517 300.156 53.1624 301.091 50.8091C302.025 48.4571 303.233 46.1744 304.713 43.9677C306.193 41.7624 307.84 39.6797 309.657 37.7317C311.475 35.7811 313.255 34.0704 314.995 32.5957C316.733 31.1211 318.357 29.9637 319.863 29.1224C321.368 28.2811 322.563 27.8397 323.445 27.7917C323.964 27.7651 324.537 27.8477 325.16 28.0424C325.781 28.2371 326.367 28.6251 326.912 29.1997C327.456 29.7757 327.924 30.6051 328.313 31.6891C328.703 32.7731 328.9 34.2131 328.9 36.0104C328.9 37.2077 328.481 38.5317 327.652 39.9837C326.821 41.4357 325.756 42.8957 324.459 44.3731C323.161 45.8504 321.717 47.3024 320.135 48.7344C318.549 50.1664 316.992 51.4571 315.46 52.6064C313.929 53.7544 312.527 54.6917 311.253 55.4131C309.981 56.1357 308.605 56.3997 308.335 56.5864C307.885 56.8997 307.536 58.4557 307.4 59.1997C307.283 59.8371 307.36 60.4157 307.593 60.8904C307.828 61.3651 308.465 61.5584 309.504 61.4717C310.801 61.3637 312.567 60.5637 314.8 59.0944C317.031 57.6251 319.409 55.7931 321.929 53.6037C324.445 51.4157 326.923 49.0037 329.364 46.3651C331.805 43.7264 333.863 41.0317 335.597 38.6397" fill="#231F20"/>
<path d="M73.0606 43.864L76.0606 37.1973L79.7273 43.864H86.0606L81.0606 49.5307L83.0606 55.5307L77.0606 53.1973L71.0606 57.5307V50.1973L65.7273 44.5307L73.0606 43.864Z" fill="#53C6D4"/>
<path d="M156.822 32.7606L161.395 22.5966L166.986 32.7606H176.642L169.018 41.3992L172.068 50.5472L162.92 46.9899L153.772 53.5966V42.4166L145.642 33.7766L156.822 32.7606Z" fill="#F9AB1B"/>
<path d="M123.809 54.2064L126.658 47.8744L130.141 54.2064H136.157L131.407 59.5891L133.307 65.2877L127.609 63.0717L121.909 67.1877V60.2224L116.843 54.8397L123.809 54.2064Z" fill="#F9AB1B"/>
</svg>
